# Blender 5.2.0 LTS
# www.blender.org
mtllib Brazo2.mtl
g Brazo2_RoverModificado.004
v 0.547982 -0.173141 -0.263937
v 0.542572 -0.183525 -0.123304
v 0.211396 -0.518585 -0.302391
v 0.205986 -0.528970 -0.161757
v 0.195879 -0.548372 0.101014
v 0.190470 -0.558756 0.241647
v 0.532465 -0.202928 0.139467
v 0.527056 -0.213311 0.280100
v 0.284676 -0.253638 -0.280009
v 0.279267 -0.264022 -0.139375
v 0.215783 -0.361890 -0.149043
v 0.375513 -0.197956 -0.130795
v 0.194728 -0.476660 -0.158328
v 0.489870 -0.173751 -0.124609
v 0.269161 -0.283425 0.123396
v 0.263751 -0.293809 0.264029
v 0.200268 -0.391677 0.254361
v 0.359997 -0.227742 0.272609
v 0.474354 -0.203538 0.278795
v 0.709615 -0.246350 -0.290260
v 0.686617 -0.290500 0.307672
v 0.776084 -0.342593 -0.294809
v 0.753086 -0.386743 0.303122
v 0.800662 -0.456794 -0.302297
v 0.777664 -0.500945 0.295635
v 0.779606 -0.571564 -0.311581
v 0.756608 -0.615714 0.286350
v 0.716123 -0.669432 -0.321249
v 0.693125 -0.713582 0.276682
v 0.619876 -0.735497 -0.329829
v 0.596878 -0.779648 0.268102
v 0.505520 -0.759703 -0.336015
v 0.482521 -0.803854 0.261916
v 0.390462 -0.738365 -0.338865
v 0.367464 -0.782516 0.259066
v 0.292220 -0.674729 -0.337945
v 0.269223 -0.718880 0.259986
v 0.225751 -0.578486 -0.333395
v 0.202753 -0.622637 0.264536
v 0.178175 -0.508436 0.272023
v 0.222229 -0.349515 -0.316624
v 0.199231 -0.393666 0.281308
v 0.262714 -0.295798 0.290976
v 0.381959 -0.185582 -0.298375
v 0.473318 -0.205527 0.305742
v 0.611373 -0.182715 -0.289340
v -1.693365 1.957601 0.213386
v -1.698774 1.947217 0.354019
v -1.677849 1.987388 -0.190019
v -1.683257 1.977004 -0.049385
v -2.014436 1.641944 -0.228472
v -2.019844 1.631559 -0.087839
v -2.029951 1.612156 0.174932
v -2.035361 1.601771 0.315566
v -2.616015 2.551652 -0.091157
v -2.664459 2.501465 -0.082977
v -2.706578 2.456901 -0.048734
v -2.735960 2.424745 0.006360
v -2.748132 2.409894 0.073917
v -2.741240 2.414608 0.143651
v -2.716335 2.438169 0.204947
v -2.677207 2.476991 0.248472
v -2.629814 2.525163 0.267601
v -2.581370 2.575351 0.259422
v -2.539251 2.619914 0.225178
v -2.509868 2.652070 0.170084
v -2.497696 2.666921 0.102528
v -2.504588 2.662208 0.032793
v -2.529494 2.638647 -0.028503
v -2.568621 2.599824 -0.072028
v -2.290002 2.137994 -0.095413
v -2.241558 2.188181 -0.103593
v -2.332121 2.093429 -0.061169
v -2.361504 2.061275 -0.006076
v -2.373677 2.046422 0.061481
v -2.366784 2.051137 0.131215
v -2.341879 2.074699 0.192511
v -2.302750 2.113519 0.236037
v -2.255358 2.161691 0.255166
v -2.206912 2.211879 0.246986
v -2.164793 2.256444 0.212742
v -2.135411 2.288598 0.157649
v -2.123238 2.303451 0.090092
v -2.130131 2.298736 0.020357
v -2.155035 2.275174 -0.040938
v -2.194164 2.236353 -0.084464
v -2.242572 2.195149 -0.157304
v -2.105845 2.062434 -0.161845
v -2.168823 1.997190 -0.151211
v -2.223578 1.939256 -0.106694
v -2.261775 1.897454 -0.035072
v -2.277599 1.878148 0.052751
v -2.268640 1.884274 0.143406
v -2.236263 1.914905 0.223091
v -2.185396 1.965373 0.279674
v -2.123784 2.027995 0.304542
v -2.060807 2.093240 0.293908
v -2.006051 2.151174 0.249391
v -1.967854 2.192975 0.177769
v -1.952031 2.212283 0.089946
v -1.960990 2.206155 -0.000709
v -1.993367 2.175525 -0.080394
v -2.044233 2.125057 -0.136977
v -2.305550 2.129905 -0.146670
v -2.360305 2.071971 -0.102154
v -2.398502 2.030169 -0.030532
v -2.414326 2.010861 0.057292
v -2.405367 2.016992 0.147947
v -2.372990 2.047620 0.227631
v -2.322123 2.098088 0.284215
v -2.260511 2.160712 0.309082
v -2.197534 2.225957 0.298448
v -2.142778 2.283889 0.253932
v -2.104582 2.325691 0.182310
v -2.088757 2.344999 0.094486
v -2.097717 2.338870 0.003831
v -2.130094 2.308240 -0.075854
v -2.180961 2.257772 -0.132437
v -1.740469 1.923472 -0.224280
v -1.641870 2.019529 -0.062876
v -1.668369 1.995965 -0.172068
v -2.059265 1.591149 -0.110562
v -1.949167 1.709281 -0.248123
v -2.024636 1.630323 -0.212770
v -1.653370 1.997453 0.236089
v -1.763469 1.879321 0.373651
v -1.687998 1.958282 0.338298
v -1.972165 1.665132 0.349808
v -2.070764 1.569074 0.188404
v -2.044267 1.592637 0.297596
v -1.900118 2.270197 -0.054300
v -1.998716 2.174143 -0.215704
v -1.926615 2.246637 -0.163492
v -2.207413 1.959952 -0.239547
v -2.317511 1.841819 -0.101985
v -2.282883 1.880992 -0.204194
v -2.021714 2.129991 0.382227
v -1.911616 2.248122 0.244665
v -1.946245 2.208951 0.346874
v -2.329010 1.819743 0.196980
v -2.230411 1.915801 0.358384
v -2.302513 1.843307 0.306172
v -2.580564 2.395274 -0.144253
v -2.513477 2.464127 -0.136589
v -2.515589 2.460072 -0.081683
v -2.564032 2.409884 -0.073504
v -2.606153 2.365320 -0.039260
v -2.635535 2.333165 0.015834
v -2.647706 2.318314 0.083390
v -2.640815 2.323027 0.153125
v -2.615908 2.346588 0.214421
v -2.576781 2.385410 0.257946
v -2.529388 2.433582 0.277075
v -2.480943 2.483770 0.268895
v -2.438824 2.528334 0.234652
v -2.409441 2.560488 0.179558
v -2.397269 2.575340 0.112001
v -2.404162 2.570626 0.042267
v -2.429066 2.547067 -0.019029
v -2.468195 2.508243 -0.062555
v -2.637437 2.336904 -0.150751
v -2.680753 2.287699 -0.016911
v -2.697793 2.266908 0.077668
v -2.688146 2.273507 0.175296
v -2.655460 2.302306 0.317819
v -2.598586 2.360676 0.324316
v -2.531500 2.429527 0.331981
v -2.464413 2.498379 0.339645
v -2.407540 2.556749 0.346142
v -2.364224 2.605953 0.212303
v -2.347182 2.626745 0.117724
v -2.356831 2.620146 0.020095
v -2.389518 2.591347 -0.122427
v -2.446390 2.532978 -0.128925
v -2.611895 2.807202 -0.115042
v -2.668770 2.748832 -0.121540
v -2.735855 2.679981 -0.129204
v -2.579209 2.836000 0.027480
v -2.569560 2.842600 0.125109
v -2.586601 2.821809 0.219688
v -2.629918 2.772604 0.353528
v -2.686792 2.714234 0.347030
v -2.753878 2.645382 0.339366
v -2.820965 2.576530 0.331701
v -2.877838 2.518161 0.325204
v -2.910525 2.489362 0.182681
v -2.920172 2.482762 0.085053
v -2.903132 2.503554 -0.009526
v -2.859815 2.552759 -0.143366
v -2.802943 2.611129 -0.136868
v -2.850137 2.560759 -0.071061
v -2.627527 2.789227 -0.045629
v -2.847378 2.566057 -0.142813
v -2.624768 2.794526 -0.117381
v -2.865469 2.531325 0.327560
v -2.642860 2.759794 0.352992
v -2.862708 2.536624 0.255808
v -2.640100 2.765092 0.281240
v -3.109943 2.820919 -0.134093
v -3.112415 2.981660 -0.122320
v -3.144533 2.900872 -0.129520
v -3.048384 3.047376 -0.115005
v -2.887332 3.049387 -0.108661
v -2.968372 3.081671 -0.109394
v -3.112703 2.815620 -0.062342
v -2.890092 3.044089 -0.036910
v -2.971131 3.076373 -0.037643
v -3.125273 2.791485 0.264527
v -3.127746 2.952226 0.276301
v -3.159866 2.871439 0.269101
v -3.063718 3.017940 0.283616
v -2.902663 3.019955 0.289960
v -2.983703 3.052237 0.289226
v -3.128034 2.786187 0.336279
v -2.905423 3.014655 0.361711
v -2.986462 3.046940 0.360978
v -2.889335 2.780416 -0.195364
v -2.865321 2.807850 -0.194207
v -2.947117 2.779982 -0.195324
v -2.911330 2.772923 -0.195664
v -2.976382 2.829759 -0.193152
v -2.964609 2.795266 -0.194648
v -2.947866 2.879971 -0.191020
v -2.971877 2.852536 -0.192176
v -2.890084 2.880404 -0.191060
v -2.925869 2.887462 -0.190719
v -2.860819 2.830627 -0.193232
v -2.872590 2.865121 -0.191735
v -2.865524 2.816450 -0.394022
v -2.889537 2.789018 -0.395179
v -2.911533 2.781523 -0.395479
v -2.947318 2.788583 -0.395139
v -2.964812 2.803866 -0.394463
v -2.976584 2.838359 -0.392967
v -2.972080 2.861136 -0.391991
v -2.948066 2.888570 -0.390835
v -2.926070 2.896064 -0.390534
v -2.890287 2.889004 -0.390874
v -2.872793 2.873721 -0.391550
v -2.861020 2.839228 -0.393046
v -2.838380 2.789452 -0.195026
v -2.867493 2.756191 -0.196428
v -2.913808 2.740412 -0.197061
v -2.957196 2.748972 -0.196649
v -2.994028 2.781155 -0.195226
v -3.008301 2.822973 -0.193412
v -2.998821 2.870933 -0.191357
v -2.969705 2.904195 -0.189955
v -2.923393 2.919974 -0.189323
v -2.880005 2.911415 -0.189735
v -2.843171 2.879234 -0.191157
v -2.828899 2.837413 -0.192972
v -2.867427 2.753298 -0.129203
v -2.838311 2.786559 -0.127800
v -2.957129 2.746078 -0.129423
v -2.913739 2.737519 -0.129835
v -3.008232 2.820080 -0.126186
v -2.993961 2.778259 -0.128000
v -2.969639 2.901301 -0.122729
v -2.998753 2.868040 -0.124131
v -2.879936 2.908520 -0.122509
v -2.923323 2.917081 -0.122097
v -2.828830 2.834519 -0.125746
v -2.843104 2.876341 -0.123931
v -0.000000 -0.464322 -0.018428
v -0.000000 -0.469719 -0.022570
v -0.000000 -0.476004 -0.025173
v -0.000000 -0.482749 -0.026061
v -0.000000 -0.489495 -0.025173
v -0.000000 -0.495780 -0.022570
v -0.000000 -0.501177 -0.018428
v -0.000000 -0.505319 -0.013031
v -0.000000 -0.507922 -0.006745
v 0.002581 -0.457577 -0.006232
v 0.004987 -0.460180 -0.012039
v 0.007052 -0.464322 -0.017025
v 0.008637 -0.469719 -0.020852
v 0.009633 -0.476004 -0.023257
v 0.009973 -0.482749 -0.024077
v 0.009633 -0.489495 -0.023257
v 0.008637 -0.495780 -0.020852
v 0.007052 -0.501177 -0.017025
v 0.004987 -0.505319 -0.012039
v 0.002581 -0.507922 -0.006232
v 0.000000 -0.456689 0.000000
v 0.004769 -0.457577 -0.004770
v 0.009214 -0.460180 -0.009214
v 0.013030 -0.464322 -0.013031
v 0.015959 -0.469719 -0.015959
v 0.017800 -0.476004 -0.017800
v 0.018428 -0.482749 -0.018428
v 0.017800 -0.489495 -0.017800
v 0.015959 -0.495780 -0.015959
v 0.013030 -0.501177 -0.013031
v 0.009214 -0.505319 -0.009214
v 0.004769 -0.507922 -0.004770
v 0.006232 -0.457577 -0.002581
v 0.012039 -0.460180 -0.004987
v 0.017025 -0.464322 -0.007052
v 0.020851 -0.469719 -0.008637
v 0.023257 -0.476004 -0.009633
v 0.024077 -0.482749 -0.009973
v 0.023257 -0.489495 -0.009633
v 0.020851 -0.495780 -0.008637
v 0.017025 -0.501177 -0.007052
v 0.012039 -0.505319 -0.004987
v 0.006232 -0.507922 -0.002581
v 0.006745 -0.457577 0.000000
v 0.013030 -0.460180 0.000000
v 0.018428 -0.464322 0.000000
v 0.022569 -0.469719 0.000000
v 0.025173 -0.476004 0.000000
v 0.026061 -0.482749 0.000000
v 0.025173 -0.489495 0.000000
v 0.022569 -0.495780 0.000000
v 0.018428 -0.501177 0.000000
v 0.013030 -0.505319 0.000000
v 0.006745 -0.507922 0.000000
v 0.006232 -0.457577 0.002581
v 0.012039 -0.460180 0.004986
v 0.017025 -0.464322 0.007052
v 0.020851 -0.469719 0.008637
v 0.023257 -0.476004 0.009633
v 0.024077 -0.482749 0.009973
v 0.023257 -0.489495 0.009633
v 0.020851 -0.495780 0.008637
v 0.017025 -0.501177 0.007052
v 0.012039 -0.505319 0.004986
v 0.006232 -0.507922 0.002581
v 0.004769 -0.457577 0.004769
v 0.009214 -0.460180 0.009214
v 0.013030 -0.464322 0.013030
v 0.015959 -0.469719 0.015959
v 0.017800 -0.476004 0.017800
v 0.018428 -0.482749 0.018428
v 0.017800 -0.489495 0.017800
v 0.015959 -0.495780 0.015959
v 0.013030 -0.501177 0.013030
v 0.009214 -0.505319 0.009214
v 0.004769 -0.507922 0.004769
v 0.002581 -0.457577 0.006232
v 0.004987 -0.460180 0.012038
v 0.007052 -0.464322 0.017025
v 0.008637 -0.469719 0.020851
v 0.009633 -0.476004 0.023257
v 0.009973 -0.482749 0.024077
v 0.009633 -0.489495 0.023257
v 0.008637 -0.495780 0.020851
v 0.007052 -0.501177 0.017025
v 0.004987 -0.505319 0.012038
v 0.002581 -0.507922 0.006232
v 0.000000 -0.457577 0.006745
v 0.000000 -0.460180 0.013030
v 0.000000 -0.464322 0.018428
v 0.000000 -0.469719 0.022569
v 0.000000 -0.476004 0.025173
v 0.000000 -0.482749 0.026061
v 0.000000 -0.489495 0.025173
v 0.000000 -0.495780 0.022569
v 0.000000 -0.501177 0.018428
v 0.000000 -0.505319 0.013030
v 0.000000 -0.507922 0.006745
v 0.000000 -0.508810 0.000000
v -0.002581 -0.457577 0.006232
v -0.004987 -0.460180 0.012038
v -0.007052 -0.464322 0.017025
v -0.008637 -0.469719 0.020851
v -0.009633 -0.476004 0.023257
v -0.009973 -0.482749 0.024077
v -0.009633 -0.489495 0.023257
v -0.008637 -0.495780 0.020851
v -0.007052 -0.501177 0.017025
v -0.004987 -0.505319 0.012038
v -0.002581 -0.507922 0.006232
v -0.004769 -0.457577 0.004769
v -0.009214 -0.460180 0.009214
v -0.013030 -0.464322 0.013030
v -0.015959 -0.469719 0.015959
v -0.017800 -0.476004 0.017800
v -0.018428 -0.482749 0.018428
v -0.017800 -0.489495 0.017800
v -0.015959 -0.495780 0.015959
v -0.013030 -0.501177 0.013030
v -0.009214 -0.505319 0.009214
v -0.004769 -0.507922 0.004769
v -0.006232 -0.457577 0.002581
v -0.012039 -0.460180 0.004986
v -0.017025 -0.464322 0.007052
v -0.020851 -0.469719 0.008637
v -0.023257 -0.476004 0.009633
v -0.024077 -0.482749 0.009973
v -0.023257 -0.489495 0.009633
v -0.020851 -0.495780 0.008637
v -0.017025 -0.501177 0.007052
v -0.012039 -0.505319 0.004986
v -0.006232 -0.507922 0.002581
v -0.006745 -0.457577 0.000000
v -0.013030 -0.460180 0.000000
v -0.018428 -0.464322 0.000000
v -0.022569 -0.469719 0.000000
v -0.025173 -0.476004 0.000000
v -0.026061 -0.482749 0.000000
v -0.025173 -0.489495 0.000000
v -0.022569 -0.495780 0.000000
v -0.018428 -0.501177 0.000000
v -0.013030 -0.505319 0.000000
v -0.006745 -0.507922 0.000000
v -0.006232 -0.457577 -0.002581
v -0.012039 -0.460180 -0.004987
v -0.017025 -0.464322 -0.007052
v -0.020851 -0.469719 -0.008637
v -0.023257 -0.476004 -0.009633
v -0.024077 -0.482749 -0.009973
v -0.023257 -0.489495 -0.009633
v -0.020851 -0.495780 -0.008637
v -0.017025 -0.501177 -0.007052
v -0.012039 -0.505319 -0.004987
v -0.006232 -0.507922 -0.002581
v -0.004769 -0.457577 -0.004770
v -0.009214 -0.460180 -0.009214
v -0.013030 -0.464322 -0.013031
v -0.015959 -0.469719 -0.015959
v -0.017800 -0.476004 -0.017800
v -0.018428 -0.482749 -0.018428
v -0.017800 -0.489495 -0.017800
v -0.015959 -0.495780 -0.015959
v -0.013030 -0.501177 -0.013031
v -0.009214 -0.505319 -0.009214
v -0.004769 -0.507922 -0.004770
v -0.002581 -0.457577 -0.006232
v -0.004987 -0.460180 -0.012039
v -0.007052 -0.464322 -0.017025
v -0.008637 -0.469719 -0.020852
v -0.009633 -0.476004 -0.023257
v -0.009973 -0.482749 -0.024077
v -0.009633 -0.489495 -0.023257
v -0.008637 -0.495780 -0.020852
v -0.007052 -0.501177 -0.017025
v -0.004987 -0.505319 -0.012039
v -0.002581 -0.507922 -0.006232
v -0.000000 -0.457577 -0.006745
v -0.000000 -0.460180 -0.013031
vn 0.4528 0.5356 0.7128
vn 0.7100 0.3424 -0.6154
vn 0.5446 0.5817 -0.6041
vn 0.6589 0.2444 0.7114
vn 0.7711 0.0583 -0.6341
vn 0.7201 -0.0397 0.6928
vn 0.7187 -0.2272 -0.6571
vn 0.6677 -0.3251 0.6697
vn 0.5608 -0.4706 -0.6812
vn 0.5098 -0.5686 0.6456
vn 0.3214 -0.6349 -0.7025
vn 0.2704 -0.7329 0.6243
vn 0.0370 -0.6951 -0.7179
vn -0.0141 -0.7931 0.6089
vn -0.2492 -0.6421 -0.7250
vn -0.3003 -0.7400 0.6018
vn -0.4936 -0.4838 -0.7227
vn -0.5446 -0.5818 0.6041
vn -0.6924 -0.1887 -0.6964
vn -0.5217 0.5249 0.6725
vn -0.6866 0.3307 -0.6475
vn -0.7187 0.2272 0.6572
vn -0.7099 -0.3424 0.6154
vn -0.7727 -0.0582 0.6321
vn 0.2426 0.7720 -0.5875
vn -0.0363 0.7181 0.6950
vn 0.0383 0.0736 -0.9966
vn -0.5534 -0.5487 -0.6267
vn -0.7937 0.0323 -0.6075
vn -0.0346 0.7717 0.6350
vn -0.0383 -0.0736 0.9966
vn -0.6287 -0.6617 0.4085
vn -0.8379 -0.0527 0.5432
vn -0.0260 -0.9754 -0.2191
vn -0.9923 -0.0697 0.1028
vn -0.9811 -0.0483 -0.1874
vn 0.5508 -0.4135 0.7251
vn -0.6069 0.3058 0.7336
vn 0.3482 -0.6213 0.7019
vn -0.4043 0.5136 0.7568
vn -0.0491 0.8712 -0.4885
vn -0.3482 0.6213 -0.7019
vn 0.4043 -0.5136 -0.7568
vn -0.5508 0.4135 -0.7251
vn 0.0372 0.9968 -0.0710
vn 0.9811 0.0483 0.1874
vn 0.9923 0.0697 -0.1028
vn 0.0096 0.8567 -0.5157
vn 0.6379 0.6427 0.4243
vn 0.5965 0.6315 -0.4953
vn -0.6648 -0.6943 0.2755
vn -0.5376 0.5908 -0.6017
vn -0.6628 0.3333 -0.6705
vn -0.7051 0.4172 -0.5734
vn -0.3737 0.7573 -0.5355
vn -0.1212 0.8838 -0.4519
vn -0.2782 0.7280 -0.6266
vn -0.8318 0.1545 -0.5331
vn -0.8508 0.2631 -0.4550
vn -0.4684 0.5347 -0.7033
vn -0.9497 0.0255 -0.3120
vn -0.9524 0.1519 -0.2645
vn -0.9945 0.1005 -0.0308
vn -0.9986 -0.0341 -0.0409
vn -0.9709 -0.0152 0.2389
vn -0.9706 0.1168 0.2103
vn -0.8710 0.0793 0.4849
vn -0.8845 0.1983 0.4223
vn -0.7140 0.2351 0.6595
vn -0.7492 0.3326 0.5728
vn 0.3016 0.3412 -0.8903
vn 0.5190 0.5569 -0.6485
vn -0.1522 0.9731 -0.1731
vn 0.6574 0.6878 -0.3079
vn 0.6957 0.7140 0.0795
vn -0.1705 0.9380 0.3017
vn 0.6280 0.6315 0.4548
vn 0.4648 0.4528 0.7609
vn -0.4178 0.6727 0.6107
vn 0.2308 0.2052 0.9511
vn -0.5853 0.4991 0.6390
vn -0.3016 -0.3412 0.8903
vn -0.5190 -0.5569 0.6485
vn -0.6574 -0.6878 0.3079
vn -0.6957 -0.7140 -0.0795
vn -0.6280 -0.6315 -0.4548
vn -0.4648 -0.4528 -0.7609
vn -0.2308 -0.2052 -0.9511
vn -0.5238 0.4284 0.7363
vn -0.3294 0.6298 0.7034
vn -0.1604 0.8086 0.5660
vn -0.0425 0.9377 0.3450
vn 0.0064 0.9972 0.0739
vn -0.0213 0.9783 -0.2059
vn -0.2384 0.8916 -0.3850
vn -0.1284 0.9894 0.0681
vn -0.2721 0.8268 0.4923
vn 0.0260 0.9754 0.2191
vn 0.8130 -0.0873 0.5757
vn -0.0913 0.7904 0.6057
vn 0.0492 -0.8712 0.4884
vn -0.8551 0.0065 0.5185
vn 0.8551 -0.0065 -0.5185
vn 0.0913 -0.7904 -0.6057
vn -0.8130 0.0873 -0.5757
vn 0.6069 -0.3058 -0.7336
vn -0.0372 -0.9968 0.0711
vn -0.2797 0.7506 -0.5987
vn -0.3638 0.3597 0.8592
vn -0.6586 0.3150 0.6834
vn -0.6607 -0.0469 0.7492
vn 0.3682 0.9261 0.0825
vn -0.8518 0.0888 0.5163
vn -0.9172 -0.3931 -0.0643
vn 0.3682 0.9261 0.0826
vn -0.6607 -0.0470 0.7492
vn -0.9172 -0.3932 -0.0643
vn -0.6587 0.3151 0.6833
vn -0.6306 0.5031 0.5909
vn 0.0384 0.0736 -0.9966
vn 0.0668 -0.9968 -0.0430
vn 0.5567 -0.8299 -0.0363
vn -0.4411 -0.8967 -0.0381
vn -0.8307 -0.5562 -0.0231
vn -0.3965 0.9165 0.0524
vn -0.9978 -0.0667 -0.0019
vn -0.8975 0.4406 0.0199
vn 0.8307 0.5562 0.0231
vn 0.4411 0.8967 0.0382
vn -0.5567 0.8299 0.0363
vn -0.0668 0.9968 0.0430
vn 0.8975 -0.4406 -0.0199
vn 0.4411 0.8967 0.0381
vn 0.9978 0.0667 0.0019
vn 0.9978 0.0667 0.0018
vn -0.0010 0.0430 -0.9991
vn 0.7173 -0.6963 -0.0238
vn 0.7174 -0.6963 -0.0238
vn -0.6748 -0.6859 -0.2724
vn -0.7174 0.6963 0.0238
vn -0.7173 0.6963 0.0238
vn 0.6613 0.6912 -0.2913
vn 0.6332 0.6373 0.4392
vn -0.6898 -0.7146 0.1165
vn 0.6748 0.6859 0.2724
vn -0.6613 -0.6912 0.2913
vn -0.6332 -0.6373 -0.4392
vn 0.6898 0.7146 -0.1165
vn 0.4410 0.8967 0.0381
vn 0.8975 -0.4407 -0.0199
vn -0.0667 0.9968 0.0430
vn -0.4411 -0.8967 -0.0382
vn -0.0011 0.0430 -0.9991
vn -0.0010 0.0431 -0.9991
vn 0.8307 0.5563 0.0231
vn -0.0000 0.4931 -0.8700
vn 0.3700 0.2548 -0.8934
vn -0.0000 0.2548 -0.9670
vn -0.0000 -1.0000 -0.0000
vn -0.0000 -0.9618 -0.2738
vn 0.1048 -0.9618 -0.2530
vn -0.0000 0.8590 -0.5120
vn 0.1048 0.9618 -0.2530
vn 0.1960 0.8590 -0.4731
vn -0.0000 -0.6991 -0.7150
vn 0.3329 -0.4931 -0.8037
vn 0.2736 -0.6991 -0.6606
vn -0.0000 -0.0000 -1.0000
vn 0.3827 -0.0000 -0.9239
vn 0.2736 0.6991 -0.6606
vn -0.0000 0.6991 -0.7150
vn -0.0000 -0.8590 -0.5120
vn 0.1960 -0.8590 -0.4731
vn 0.3700 -0.2548 -0.8934
vn -0.0000 -0.2548 -0.9670
vn 0.3329 0.4931 -0.8037
vn -0.0000 0.9618 -0.2738
vn -0.0000 1.0000 -0.0000
vn -0.0000 -0.4931 -0.8700
vn 0.5056 0.6991 -0.5056
vn 0.5056 -0.6991 -0.5056
vn 0.3621 -0.8590 -0.3620
vn 0.6838 -0.2549 -0.6837
vn 0.6152 0.4931 -0.6151
vn 0.1936 -0.9618 -0.1937
vn 0.1936 0.9618 -0.1937
vn 0.6152 -0.4931 -0.6151
vn 0.6838 0.2549 -0.6837
vn 0.3621 0.8590 -0.3621
vn 0.7071 -0.0000 -0.7071
vn 0.2530 -0.9618 -0.1048
vn 0.2530 0.9618 -0.1048
vn 0.4731 0.8590 -0.1959
vn 0.6607 -0.6990 -0.2737
vn 0.9239 -0.0000 -0.3827
vn 0.6607 0.6990 -0.2737
vn 0.4731 -0.8590 -0.1959
vn 0.8934 -0.2549 -0.3700
vn 0.8037 0.4931 -0.3329
vn 0.8037 -0.4931 -0.3329
vn 0.8934 0.2549 -0.3700
vn 0.8700 0.4931 -0.0000
vn 0.5120 -0.8590 -0.0000
vn 0.2739 -0.9618 -0.0000
vn 0.2739 0.9618 -0.0000
vn 0.8700 -0.4931 -0.0000
vn 0.9670 0.2549 -0.0000
vn 0.5120 0.8590 -0.0000
vn 0.7151 -0.6990 -0.0000
vn 1.0000 -0.0000 -0.0000
vn 0.7151 0.6990 -0.0000
vn 0.9670 -0.2549 -0.0000
vn 0.4731 0.8590 0.1959
vn 0.6606 0.6990 0.2737
vn 0.4731 -0.8590 0.1959
vn 0.8934 -0.2549 0.3700
vn 0.8037 0.4931 0.3329
vn 0.2530 -0.9618 0.1048
vn 0.2530 0.9618 0.1048
vn 0.8037 -0.4931 0.3329
vn 0.8934 0.2549 0.3700
vn 0.6606 -0.6990 0.2737
vn 0.9239 -0.0000 0.3827
vn 0.6838 0.2549 0.6838
vn 0.1936 -0.9618 0.1936
vn 0.3621 0.8590 0.3621
vn 0.5056 -0.6991 0.5056
vn 0.7071 -0.0000 0.7071
vn 0.5056 0.6991 0.5056
vn 0.3621 -0.8590 0.3621
vn 0.6838 -0.2549 0.6838
vn 0.6151 0.4932 0.6151
vn 0.1936 0.9618 0.1936
vn 0.6151 -0.4932 0.6151
vn 0.3329 0.4931 0.8037
vn 0.1048 -0.9618 0.2530
vn 0.1048 0.9618 0.2530
vn 0.3329 -0.4931 0.8037
vn 0.3700 0.2549 0.8934
vn 0.1960 0.8590 0.4731
vn 0.2737 -0.6991 0.6606
vn 0.3827 -0.0000 0.9239
vn 0.2737 0.6991 0.6606
vn 0.1960 -0.8590 0.4731
vn 0.3700 -0.2549 0.8934
vn -0.0000 -0.0000 1.0000
vn -0.0000 0.8590 0.5120
vn -0.0000 0.6991 0.7151
vn -0.0000 -0.8590 0.5120
vn -0.0000 -0.2549 0.9670
vn -0.0000 0.4931 0.8700
vn -0.0000 -0.9618 0.2739
vn -0.0000 0.9618 0.2739
vn -0.0000 -0.4931 0.8700
vn -0.0000 0.2549 0.9670
vn -0.0000 -0.6991 0.7151
vn -0.3700 0.2549 0.8934
vn -0.1048 -0.9618 0.2530
vn -0.1048 0.9618 0.2530
vn -0.1960 0.8590 0.4731
vn -0.2737 -0.6991 0.6606
vn -0.3827 -0.0000 0.9239
vn -0.2737 0.6991 0.6606
vn -0.1960 -0.8590 0.4731
vn -0.3700 -0.2549 0.8934
vn -0.3329 0.4931 0.8037
vn -0.3329 -0.4931 0.8037
vn -0.6838 -0.2549 0.6838
vn -0.5056 0.6991 0.5056
vn -0.6151 0.4932 0.6151
vn -0.3621 -0.8590 0.3621
vn -0.1936 -0.9618 0.1936
vn -0.1936 0.9618 0.1936
vn -0.6151 -0.4932 0.6151
vn -0.6838 0.2549 0.6838
vn -0.3621 0.8590 0.3621
vn -0.5056 -0.6991 0.5056
vn -0.7071 -0.0000 0.7071
vn -0.9239 -0.0000 0.3827
vn -0.6606 0.6990 0.2737
vn -0.6606 -0.6990 0.2737
vn -0.4731 -0.8590 0.1959
vn -0.8934 -0.2549 0.3700
vn -0.8037 0.4931 0.3329
vn -0.2530 -0.9618 0.1048
vn -0.2530 0.9618 0.1048
vn -0.8037 -0.4931 0.3329
vn -0.8934 0.2549 0.3700
vn -0.4731 0.8590 0.1959
vn -0.8700 -0.4931 -0.0000
vn -0.8700 0.4931 -0.0000
vn -0.9670 0.2549 -0.0000
vn -0.2739 -0.9618 -0.0000
vn -0.5120 0.8590 -0.0000
vn -0.7151 -0.6990 -0.0000
vn -1.0000 -0.0000 -0.0000
vn -0.7151 0.6990 -0.0000
vn -0.5120 -0.8590 -0.0000
vn -0.9670 -0.2549 -0.0000
vn -0.2739 0.9618 -0.0000
vn -0.8934 -0.2549 -0.3700
vn -0.6607 0.6990 -0.2736
vn -0.8037 0.4931 -0.3329
vn -0.2530 -0.9618 -0.1048
vn -0.2530 0.9618 -0.1048
vn -0.8037 -0.4931 -0.3329
vn -0.8934 0.2549 -0.3700
vn -0.4731 0.8590 -0.1959
vn -0.6607 -0.6990 -0.2737
vn -0.9239 -0.0000 -0.3827
vn -0.4731 -0.8590 -0.1959
vn -0.6152 -0.4931 -0.6151
vn -0.5056 -0.6991 -0.5056
vn -0.6838 0.2549 -0.6837
vn -0.7071 -0.0000 -0.7071
vn -0.5056 0.6991 -0.5056
vn -0.3621 -0.8590 -0.3620
vn -0.6838 -0.2549 -0.6837
vn -0.6152 0.4931 -0.6151
vn -0.1936 -0.9618 -0.1937
vn -0.1936 0.9618 -0.1937
vn -0.3621 0.8590 -0.3621
vn -0.1048 0.9618 -0.2530
vn -0.3329 -0.4931 -0.8037
vn -0.3329 0.4931 -0.8037
vn -0.3700 0.2548 -0.8934
vn -0.1048 -0.9618 -0.2530
vn -0.1960 0.8590 -0.4731
vn -0.2736 -0.6991 -0.6606
vn -0.3827 -0.0000 -0.9239
vn -0.2736 0.6991 -0.6606
vn -0.1960 -0.8590 -0.4731
vn -0.3700 -0.2548 -0.8934
vt 0.607413 0.036614
vt 0.603145 0.014733
vt 0.607413 0.014733
vt 0.603145 0.036614
vt 0.598876 0.014733
vt 0.598876 0.036614
vt 0.594607 0.014733
vt 0.594607 0.036614
vt 0.590339 0.014733
vt 0.590339 0.036614
vt 0.586070 0.014733
vt 0.586070 0.036614
vt 0.581802 0.014733
vt 0.581802 0.036614
vt 0.577533 0.014733
vt 0.577533 0.036614
vt 0.573264 0.014733
vt 0.573264 0.036614
vt 0.568996 0.014733
vt 0.624488 0.036614
vt 0.628757 0.014733
vt 0.628757 0.036614
vt 0.568996 0.036614
vt 0.633025 0.036614
vt 0.611682 0.014733
vt 0.639244 0.126396
vt 0.628151 0.827709
vt 0.566549 0.865538
vt 0.580852 0.146243
vt 0.637294 0.014733
vt 0.637294 0.036614
vt 0.556250 0.098026
vt 0.676256 0.087072
vt 0.675217 0.091635
vt 0.521681 0.861431
vt 0.487253 0.835220
vt 0.532927 0.141943
vt 0.545290 0.056720
vt 0.536160 0.045764
vt 0.545290 0.045764
vt 0.520640 0.032070
vt 0.531595 0.041199
vt 0.520640 0.041199
vt 0.531595 0.032070
vt 0.548517 0.028842
vt 0.549855 0.032070
vt 0.560810 0.041199
vt 0.549855 0.041199
vt 0.549855 0.025082
vt 0.560810 0.015953
vt 0.560810 0.025082
vt 0.629694 0.112102
vt 0.643987 0.102551
vt 0.653538 0.116845
vt 0.630084 0.112301
vt 0.644378 0.102750
vt 0.653929 0.117044
vt 0.557340 0.054040
vt 0.679987 0.048462
vt 0.679987 0.054040
vt 0.557124 0.053931
vt 0.679770 0.048875
vt 0.679746 0.054452
vt 0.556784 0.078691
vt 0.680912 0.075517
vt 0.680800 0.081157
vt 0.557105 0.078806
vt 0.681243 0.075104
vt 0.681154 0.080745
vt 0.460758 0.829304
vt 0.434016 0.833977
vt 0.551144 0.078535
vt 0.550610 0.097870
vt 0.557193 0.073165
vt 0.551762 0.053997
vt 0.670009 0.105863
vt 0.673857 0.105126
vt 0.672638 0.106952
vt 0.667164 0.105863
vt 0.663315 0.105126
vt 0.666735 0.103710
vt 0.676475 0.107745
vt 0.674649 0.108965
vt 0.670437 0.103710
vt 0.677892 0.111165
vt 0.675738 0.111594
vt 0.675738 0.114439
vt 0.677891 0.114867
vt 0.676475 0.118287
vt 0.674650 0.117068
vt 0.673858 0.120904
vt 0.672638 0.119079
vt 0.670438 0.122321
vt 0.670009 0.120168
vt 0.649919 0.016570
vt 0.647358 0.035606
vt 0.647358 0.016570
vt 0.652480 0.016570
vt 0.649919 0.035606
vt 0.655042 0.035606
vt 0.655042 0.016570
vt 0.657603 0.016570
vt 0.660164 0.035606
vt 0.660164 0.016570
vt 0.662725 0.016570
vt 0.665286 0.035606
vt 0.665286 0.016570
vt 0.667848 0.035606
vt 0.667848 0.016570
vt 0.670409 0.016570
vt 0.672970 0.035606
vt 0.672970 0.016570
vt 0.675531 0.016570
vt 0.678092 0.035606
vt 0.678092 0.016570
vt 0.680653 0.016570
vt 0.642236 0.035606
vt 0.639675 0.016570
vt 0.642236 0.016570
vt 0.644797 0.016570
vt 0.669494 0.037595
vt 0.673194 0.045317
vt 0.669494 0.045317
vt 0.676893 0.037595
vt 0.676893 0.045317
vt 0.680593 0.037595
vt 0.680593 0.045317
vt 0.621401 0.037595
vt 0.625101 0.045317
vt 0.621401 0.045317
vt 0.628800 0.037595
vt 0.628800 0.045317
vt 0.632500 0.045317
vt 0.632500 0.037595
vt 0.636199 0.045317
vt 0.636199 0.037595
vt 0.639899 0.045317
vt 0.639899 0.037595
vt 0.643598 0.045317
vt 0.643598 0.037595
vt 0.647298 0.045317
vt 0.647298 0.037595
vt 0.650997 0.045317
vt 0.654696 0.037595
vt 0.654696 0.045317
vt 0.658396 0.045317
vt 0.662095 0.037595
vt 0.662095 0.045317
vt 0.665795 0.045317
vt 0.665795 0.037595
vt 0.664535 0.106952
vt 0.660698 0.107744
vt 0.661435 0.111592
vt 0.662523 0.108963
vt 0.659281 0.114865
vt 0.659282 0.111164
vt 0.662524 0.117066
vt 0.661435 0.114437
vt 0.663316 0.120904
vt 0.660698 0.118286
vt 0.667164 0.120168
vt 0.664535 0.119078
vt 0.666736 0.122321
vt 0.531595 0.025082
vt 0.520640 0.028576
vt 0.520640 0.025082
vt 0.531595 0.028576
vt 0.532666 0.056720
vt 0.532666 0.045764
vt 0.529173 0.045764
vt 0.560810 0.028576
vt 0.549855 0.028576
vt 0.548783 0.056720
vt 0.549855 0.044693
vt 0.560810 0.044693
vt 0.549855 0.070414
vt 0.532932 0.073642
vt 0.536160 0.056720
vt 0.688723 0.858776
vt 0.691746 0.147570
vt 0.674674 0.064508
vt 0.678494 0.100209
vt 0.681646 0.102481
vt 0.678963 0.083255
vt 0.676003 0.096248
vt 0.615951 0.036614
vt 0.620219 0.014733
vt 0.631509 0.121227
vt 0.532932 0.044427
vt 0.532932 0.028842
vt 0.536160 0.027505
vt 0.545290 0.027505
vt 0.548517 0.044427
vt 0.560810 0.032070
vt 0.549855 0.015953
vt 0.651723 0.121227
vt 0.648369 0.124581
vt 0.629694 0.116845
vt 0.631509 0.107720
vt 0.634862 0.104366
vt 0.639244 0.102551
vt 0.648369 0.104366
vt 0.651723 0.107720
vt 0.653538 0.112102
vt 0.652114 0.121425
vt 0.648760 0.124779
vt 0.644378 0.126594
vt 0.639635 0.126594
vt 0.635253 0.124779
vt 0.631899 0.121425
vt 0.630084 0.117044
vt 0.631899 0.107919
vt 0.635253 0.104565
vt 0.652114 0.107919
vt 0.557340 0.048462
vt 0.557148 0.048354
vt 0.556896 0.073051
vt 0.397997 0.866867
vt 0.420752 0.139323
vt 0.411098 0.848528
vt 0.551615 0.073122
vt 0.652480 0.035606
vt 0.657603 0.035606
vt 0.662725 0.035606
vt 0.670409 0.035606
vt 0.675531 0.035606
vt 0.680653 0.035606
vt 0.639675 0.035606
vt 0.644797 0.035606
vt 0.673194 0.037595
vt 0.625101 0.037595
vt 0.650997 0.037595
vt 0.658396 0.037595
vt 0.529173 0.056720
vt 0.548783 0.045764
vt 0.548517 0.058057
vt 0.549855 0.061285
vt 0.548517 0.073642
vt 0.545290 0.074979
vt 0.536160 0.074979
vt 0.531595 0.070414
vt 0.531595 0.061285
vt 0.532932 0.058057
vt 0.355705 0.237792
vt 0.295105 0.328071
vt 0.280266 0.313231
vt 0.458262 0.161182
vt 0.518862 0.070903
vt 0.533701 0.085743
vt 0.388525 0.234652
vt 0.410635 0.182862
vt 0.583119 0.018173
vt 0.291933 0.327512
vt 0.352532 0.237233
vt 0.367372 0.252072
vt 0.546801 0.055378
vt 0.582397 0.019782
vt 0.696705 0.119718
vt 0.546801 0.051138
vt 0.582397 0.015542
vt 0.696705 0.115478
vt 0.373685 0.219812
vt 0.461435 0.161741
vt 0.428615 0.164882
vt 0.446595 0.146902
vt 0.425442 0.164322
vt 0.440282 0.179162
vt 0.385352 0.234092
vt 0.522034 0.071463
vt 0.370545 0.252632
vt 0.403332 0.216113
vt 0.583119 0.017152
vt 0.443422 0.146343
vt 0.422302 0.197142
vt 0.697427 0.018173
vt 0.697427 0.118109
vt 0.583119 0.118109
vt 0.557949 0.107683
vt 0.277093 0.312672
vt 0.697427 0.017152
vt 0.697427 0.117087
vt 0.583119 0.117087
vt 0.557949 0.106662
vt 0.582397 0.119718
vt 0.557227 0.109292
vt 0.546801 0.084122
vt 0.557227 0.030208
vt 0.696705 0.019782
vt 0.582397 0.115478
vt 0.557227 0.105052
vt 0.546801 0.079883
vt 0.557227 0.025968
vt 0.696705 0.015542
vt 0.536874 0.086302
vt 0.962003 0.951947
vt 0.995228 0.927786
vt 0.995228 0.951947
vt 0.962003 0.973785
vt 0.995228 0.997947
vt 0.962003 0.997947
vt 0.962003 0.927786
vt 0.995228 0.973785
vt 0.391665 0.201832
vt 0.961280 0.946844
vt 0.928054 0.922682
vt 0.961280 0.922682
vt 0.961280 0.830683
vt 0.928054 0.854844
vt 0.928054 0.830683
vt 0.961280 0.900844
vt 0.928054 0.876682
vt 0.961280 0.876682
vt 0.928054 0.784683
vt 0.961280 0.762844
vt 0.961280 0.784683
vt 0.928054 0.968682
vt 0.961280 0.968682
vt 0.961280 0.854844
vt 0.961280 0.808844
vt 0.928054 0.808844
vt 0.830149 0.564803
vt 0.835887 0.574741
vt 0.814149 0.566716
vt 0.826230 0.587641
vt 0.814149 0.544878
vt 0.830149 0.546791
vt 0.845142 0.513034
vt 0.835887 0.536853
vt 0.826230 0.523953
vt 0.888216 0.523953
vt 0.878559 0.536853
vt 0.862960 0.527848
vt 0.845142 0.598560
vt 0.851485 0.583746
vt 0.851485 0.527848
vt 0.869304 0.598560
vt 0.869304 0.513034
vt 0.862960 0.583746
vt 0.900297 0.566716
vt 0.888216 0.587641
vt 0.878559 0.574741
vt 0.900297 0.544878
vt 0.884296 0.546791
vt 0.884296 0.564803
vt 0.928054 0.946844
vt 0.928054 0.900844
vt 0.928054 0.762844
vt 0.414083 0.020191
vt 0.394006 0.009194
vt 0.414083 0.005200
vt 0.440583 0.031167
vt 0.463030 0.037589
vt 0.448707 0.043325
vt 0.440583 0.084166
vt 0.463030 0.077745
vt 0.463030 0.094766
vt 0.414084 0.095142
vt 0.394006 0.106139
vt 0.399742 0.092290
vt 0.379460 0.043325
vt 0.365137 0.057667
vt 0.365137 0.037589
vt 0.387584 0.031167
vt 0.399742 0.023043
vt 0.434161 0.009194
vt 0.463030 0.020567
vt 0.448707 0.072008
vt 0.463030 0.057667
vt 0.434161 0.106139
vt 0.414084 0.110133
vt 0.387584 0.084166
vt 0.365137 0.077745
vt 0.379460 0.072008
vt 0.365137 0.020567
vt 0.428425 0.023043
vt 0.451559 0.057667
vt 0.428425 0.092290
vt 0.360949 0.270723
vt 0.401924 0.282747
vt 0.387449 0.297222
vt 0.376608 0.057667
vt 0.365137 0.094766
vt 0.434161 0.010684
vt 0.434161 0.107629
vt 0.365137 0.079234
vt 0.312776 0.318896
vt 0.353472 0.331198
vt 0.339275 0.345396
vt 0.286543 0.345129
vt 0.325078 0.359593
vt 0.313042 0.371629
vt 0.298579 0.333093
vt 0.537138 0.094534
vt 0.541697 0.142974
vt 0.515198 0.116474
vt 0.464307 0.167365
vt 0.512746 0.171924
vt 0.490806 0.193865
vt 0.438073 0.193598
vt 0.450376 0.234295
vt 0.423876 0.207796
vt 0.389900 0.241772
vt 0.375425 0.256247
vt 0.326973 0.304699
vt 0.365508 0.319162
vt 0.500722 0.130949
vt 0.486247 0.145425
vt 0.452271 0.179401
vt 0.464573 0.220098
vt 0.411840 0.219831
vt 0.416399 0.268271
vt 0.339009 0.292663
vt 0.527222 0.157449
vt 0.478770 0.205901
vt 0.438340 0.246331
vt 0.365137 0.039078
vt 0.365137 0.022057
vt 0.394006 0.010684
vt 0.414084 0.006690
vt 0.463030 0.022057
vt 0.463030 0.039078
vt 0.463030 0.059156
vt 0.365137 0.059156
vt 0.463030 0.079234
vt 0.463030 0.096255
vt 0.414083 0.111622
vt 0.394006 0.107629
vt 0.365137 0.096255
vt 0.563638 0.121033
vt 0.703212 0.935314
vt 0.692293 0.968139
vt 0.669325 0.942270
vt 0.745623 0.945876
vt 0.816728 0.954138
vt 0.745623 0.954138
vt 0.745623 0.903415
vt 0.816728 0.911677
vt 0.745623 0.911677
vt 0.745623 0.890447
vt 0.816728 0.882185
vt 0.816728 0.890447
vt 0.745623 0.924646
vt 0.816728 0.932908
vt 0.745623 0.932908
vt 0.745623 0.967107
vt 0.816728 0.975368
vt 0.745623 0.975369
vt 0.745623 0.988337
vt 0.816728 0.869216
vt 0.745623 0.882185
vt 0.745623 0.869216
vt 0.816728 0.996599
vt 0.745623 0.996599
vt 0.673341 0.935314
vt 0.684260 0.929010
vt 0.692293 0.929010
vt 0.707228 0.942270
vt 0.707228 0.954879
vt 0.703212 0.961835
vt 0.684260 0.968139
vt 0.673341 0.961835
vt 0.669325 0.954879
vt 0.816728 0.945876
vt 0.816728 0.903415
vt 0.816728 0.924646
vt 0.816728 0.967107
vt 0.816728 0.988337
vt 0.096533 0.417448
vt 0.093008 0.411721
vt 0.098828 0.414113
vt 0.956557 0.886568
vt 0.955660 0.887994
vt 0.955182 0.887542
vt 0.092919 0.422818
vt 0.090372 0.424811
vt 0.090881 0.422025
vt 0.953702 0.890981
vt 0.950488 0.890695
vt 0.952230 0.889552
vt 0.101659 0.409951
vt 0.094031 0.406793
vt 0.091468 0.419037
vt 0.094604 0.420283
vt 0.954726 0.889440
vt 0.953766 0.888521
vt 0.949414 0.897259
vt 0.948424 0.892034
vt 0.951135 0.894730
vt 0.092165 0.415681
vt 0.091382 0.425198
vt 0.089905 0.427544
vt 0.952530 0.892703
vt 0.088093 0.419087
vt 0.951418 0.887669
vt 0.953231 0.887304
vt 0.945867 0.893712
vt 0.946952 0.888505
vt 0.087453 0.415719
vt 0.954914 0.886942
vt 0.089290 0.424841
vt 0.949371 0.888058
vt 0.086717 0.411738
vt 0.088694 0.422072
vt 0.085776 0.406794
vt 0.954897 0.886285
vt 0.088303 0.425282
vt 0.086692 0.422952
vt 0.951388 0.885618
vt 0.078150 0.409954
vt 0.084995 0.420424
vt 0.953203 0.885975
vt 0.943947 0.884060
vt 0.946942 0.884682
vt 0.083114 0.417558
vt 0.949348 0.885195
vt 0.080911 0.414162
vt 0.079810 0.420917
vt 0.953685 0.884737
vt 0.955131 0.885671
vt 0.087559 0.426068
vt 0.950422 0.882540
vt 0.076474 0.418622
vt 0.085179 0.424531
vt 0.952145 0.883712
vt 0.072314 0.415792
vt 0.082644 0.422845
vt 0.945867 0.879426
vt 0.948395 0.881146
vt 0.084386 0.426569
vt 0.081399 0.425982
vt 0.954604 0.883777
vt 0.951091 0.878435
vt 0.078042 0.425285
vt 0.955583 0.885193
vt 0.087173 0.427078
vt 0.952430 0.880499
vt 0.074082 0.424441
vt 0.953573 0.882241
vt 0.069155 0.423418
vt 0.074099 0.430733
vt 0.956184 0.884925
vt 0.084433 0.428756
vt 0.955456 0.881428
vt 0.069155 0.431672
vt 0.081448 0.429356
vt 0.955821 0.883242
vt 0.949413 0.875878
vt 0.954620 0.876962
vt 0.078080 0.429997
vt 0.087202 0.428159
vt 0.955067 0.879382
vt 0.079919 0.434336
vt 0.956841 0.884907
vt 0.087643 0.429147
vt 0.957930 0.879358
vt 0.076522 0.436539
vt 0.085313 0.430758
vt 0.957507 0.881398
vt 0.072314 0.439299
vt 0.082785 0.432455
vt 0.957150 0.883214
vt 0.959065 0.873957
vt 0.958443 0.876952
vt 0.078152 0.445137
vt 0.086892 0.432271
vt 0.085206 0.434806
vt 0.958388 0.883696
vt 0.963700 0.875876
vt 0.961979 0.878405
vt 0.083278 0.437641
vt 0.957455 0.885142
vt 0.088429 0.429891
vt 0.960585 0.880432
vt 0.080983 0.440976
vt 0.959413 0.882155
vt 0.086802 0.443368
vt 0.957932 0.885594
vt 0.089439 0.430277
vt 0.088930 0.433064
vt 0.960884 0.883584
vt 0.085780 0.448296
vt 0.088343 0.436051
vt 0.959348 0.884615
vt 0.964690 0.881102
vt 0.087646 0.439408
vt 0.962626 0.882441
vt 0.967248 0.879424
vt 0.966163 0.884630
vt 0.091717 0.436002
vt 0.092358 0.439370
vt 0.959883 0.885832
vt 0.958200 0.886194
vt 0.090520 0.430247
vt 0.963743 0.885077
vt 0.093094 0.443350
vt 0.091117 0.433017
vt 0.961697 0.885467
vt 0.094035 0.448294
vt 0.101661 0.445134
vt 0.094816 0.434664
vt 0.961727 0.887517
vt 0.959911 0.887160
vt 0.969167 0.889076
vt 0.966173 0.888454
vt 0.096697 0.437530
vt 0.958218 0.886851
vt 0.091508 0.429806
vt 0.963767 0.887941
vt 0.098900 0.440927
vt 0.093119 0.432137
vt 0.962692 0.890595
vt 0.100001 0.434172
vt 0.103336 0.436466
vt 0.957983 0.887465
vt 0.094632 0.430557
vt 0.960970 0.889423
vt 0.107497 0.439297
vt 0.097167 0.432243
vt 0.959429 0.888399
vt 0.967248 0.893710
vt 0.964719 0.891990
vt 0.092252 0.429021
vt 0.962023 0.894701
vt 0.098412 0.429107
vt 0.101769 0.429804
vt 0.957531 0.887943
vt 0.092638 0.428011
vt 0.960684 0.892637
vt 0.105728 0.430647
vt 0.095425 0.428519
vt 0.959541 0.890895
vt 0.110656 0.431671
vt 0.958510 0.889359
vt 0.958048 0.893754
vt 0.957658 0.891707
vt 0.105712 0.424356
vt 0.110656 0.423416
vt 0.098363 0.425732
vt 0.957293 0.889894
vt 0.963701 0.897257
vt 0.958495 0.896173
vt 0.101731 0.425091
vt 0.956931 0.888211
vt 0.092608 0.426929
vt 0.095378 0.426333
vt 0.092167 0.425942
vt 0.955184 0.893777
vt 0.099892 0.420753
vt 0.103289 0.418550
vt 0.956274 0.888229
vt 0.094498 0.424331
vt 0.955608 0.891738
vt 0.107497 0.415789
vt 0.097026 0.422634
vt 0.955965 0.889922
vt 0.954050 0.899179
vt 0.954672 0.896184
vt 0.943947 0.889077
vt 0.954048 0.873958
vt 0.969167 0.884059
vt 0.959067 0.899178
s 1
g off
g Brazo2_SpacialRoverExploreralumGray
usemtl SpacialRoverExploreralumGray
f 21/1/1 22/2/2 20/3/3
f 23/4/4 24/5/5 22/2/2
f 25/6/6 26/7/7 24/5/5
f 27/8/8 28/9/9 26/7/7
f 29/10/10 30/11/11 28/9/9
f 31/12/12 32/13/13 30/11/11
f 33/14/14 34/15/15 32/13/13
f 35/16/16 36/17/17 34/15/15
f 37/18/18 38/19/19 36/17/17
f 43/20/20 41/21/21 42/22/22
f 21/1/1 23/4/4 22/2/2
f 23/4/4 25/6/6 24/5/5
f 25/6/6 27/8/8 26/7/7
f 27/8/8 29/10/10 28/9/9
f 29/10/10 31/12/12 30/11/11
f 31/12/12 33/14/14 32/13/13
f 33/14/14 35/16/16 34/15/15
f 35/16/16 37/18/18 36/17/17
f 37/18/18 39/23/23 38/19/19
f 40/24/24 42/22/22 41/21/21
f 21/1/1 46/25/25 45/26/26
s 20
f 246/304/126 260/305/127 247/306/127
f 251/307/128 261/308/129 264/309/128
f 248/310/130 262/311/131 249/312/131
f 254/313/132 242/314/122 241/315/132
f 258/316/124 246/304/126 245/317/124
f 260/305/127 248/310/130 247/306/127
f 262/311/131 250/318/133 249/312/131
f 264/309/128 252/319/134 251/307/128
f 241/315/132 263/320/135 254/313/132
s 21
f 224/321/136 221/322/136 247/323/136
f 221/322/136 246/324/136 247/323/136
f 248/325/136 224/321/136 247/323/136
f 224/321/136 248/325/136 223/326/136
f 250/327/136 226/328/136 249/329/136
f 252/330/136 227/331/136 228/332/136
f 221/322/136 245/333/136 246/324/136
f 245/333/136 221/322/136 222/334/136
f 225/335/136 226/328/136 250/327/136
f 244/336/136 245/333/136 222/334/136
f 251/337/136 228/332/136 250/327/136
f 244/336/136 222/334/136 219/338/136
f 242/339/136 243/340/136 220/341/136
f 244/336/136 219/338/136 220/341/136
f 251/337/136 252/330/136 228/332/136
f 243/340/136 244/336/136 220/341/136
f 241/342/136 218/343/136 227/331/136
f 217/344/136 242/339/136 220/341/136
f 252/330/136 241/342/136 227/331/136
f 218/343/136 242/339/136 217/344/136
f 248/325/136 249/329/136 223/326/136
f 228/332/136 225/335/136 250/327/136
f 242/339/136 218/343/136 241/342/136
f 226/328/136 223/326/136 249/329/136
s 20
f 246/304/126 257/345/126 260/305/127
f 251/307/128 250/318/133 261/308/129
f 248/310/130 259/346/130 262/311/131
f 254/313/132 253/347/122 242/314/122
f 258/316/124 257/345/126 246/304/126
f 260/305/127 259/346/130 248/310/130
f 262/311/131 261/308/129 250/318/133
f 264/309/128 263/320/135 252/319/134
f 241/315/132 252/319/134 263/320/135
s 1
f 43/20/20 44/214/108 41/21/21
f 21/1/1 20/3/3 46/25/25
s 2
g Brazo2_SpacialRoverExploreralumArm
usemtl SpacialRoverExploreralumArm
f 9/27/27 3/28/28 51/29/29
s 1
f 40/24/24 38/30/19 39/31/23
s 2
f 50/32/30 11/33/31 10/34/31
s 3
f 6/35/32 17/36/31 54/37/33
s 4
f 122/38/34 140/39/35 135/40/36
f 126/41/37 141/42/38 128/43/39
f 137/44/40 133/45/41 135/40/36
f 132/46/42 123/47/43 134/48/44
f 131/49/45 125/50/46 120/51/47
s 1
f 40/52/24 33/53/14 25/54/6
f 34/55/15 41/56/21 46/57/25
s 3
f 47/58/48 8/59/49 7/60/50
s 2
f 49/61/48 2/62/49 1/63/50
f 52/64/33 3/65/28 4/66/51
s 3
f 54/67/33 5/68/28 6/69/32
f 54/37/33 16/70/31 18/71/31
s 2
f 51/72/29 50/32/30 49/73/48
s 3
f 53/74/29 48/75/30 47/58/48
s 5
f 72/76/52 104/77/53 71/78/54
f 86/79/55 117/80/56 118/81/57
f 71/78/54 105/82/58 73/83/59
f 86/79/55 87/84/60 72/76/52
f 73/83/59 106/85/61 74/86/62
f 75/87/63 106/85/61 107/88/64
f 75/87/63 108/89/65 76/90/66
f 76/90/66 109/91/67 77/92/68
f 77/92/68 110/93/69 78/94/70
f 70/95/71 72/96/52 55/97/27
f 69/98/72 86/99/55 70/95/71
f 84/100/73 69/98/72 68/101/74
f 67/102/75 84/100/73 68/101/74
f 82/103/76 67/102/75 66/104/77
f 65/105/78 82/103/76 66/104/77
f 80/106/79 65/105/78 64/107/80
f 79/108/81 64/107/80 63/109/31
f 62/110/82 79/108/81 63/109/31
f 77/111/68 62/110/82 61/112/83
f 60/113/84 77/111/68 61/112/83
f 75/114/63 60/113/84 59/115/85
f 58/116/86 75/114/63 59/115/85
f 73/117/59 58/118/86 57/119/87
f 56/120/88 73/117/59 57/119/87
f 72/96/52 56/120/88 55/97/27
f 88/121/27 104/122/53 87/123/60
f 104/122/53 90/124/87 105/125/58
f 105/125/58 91/126/86 106/127/61
f 91/128/86 107/129/64 106/130/61
f 107/129/64 93/131/84 108/132/65
f 93/131/84 109/133/67 108/132/65
f 94/134/83 110/135/69 109/133/67
f 95/136/82 111/137/89 110/135/69
f 96/138/31 112/139/90 111/137/89
f 97/140/80 113/141/91 112/139/90
f 98/142/78 114/143/92 113/141/91
f 114/143/92 100/144/75 115/145/93
f 100/144/75 116/146/94 115/145/93
f 116/146/94 102/147/72 117/148/56
f 102/147/72 118/149/57 117/148/56
f 103/150/71 87/123/60 118/149/57
f 85/151/95 116/152/94 117/80/56
f 83/153/96 116/152/94 84/154/73
f 83/153/96 114/155/92 115/156/93
f 81/157/97 114/155/92 82/158/76
f 81/157/97 112/159/90 113/160/91
f 79/161/81 112/159/90 80/162/79
f 79/161/81 110/93/69 111/163/89
s 4
f 138/164/98 127/165/99 125/166/46
f 139/167/100 126/41/37 127/165/99
f 140/39/35 130/168/101 142/169/102
f 130/168/101 141/170/38 142/169/102
f 131/49/45 121/171/103 133/172/41
f 121/171/103 132/46/42 133/172/41
f 135/40/36 124/173/104 122/38/34
f 136/174/105 123/47/43 124/175/104
f 119/176/106 127/177/99 129/178/107
s 2
f 1/179/50 9/27/27 51/29/29
f 51/29/29 49/180/48 1/179/50
s 3
f 15/181/27 5/68/28 53/74/29
s 2
f 14/182/31 2/183/49 50/32/30
f 50/32/30 52/64/33 4/66/51
f 50/32/30 4/66/51 13/184/31
f 12/185/31 14/182/31 50/32/30
f 10/34/31 12/185/31 50/32/30
f 50/32/30 13/184/31 11/33/31
s 3
f 7/60/50 15/181/27 53/74/29
f 53/74/29 47/58/48 7/60/50
s 1
f 45/186/26 46/57/25 44/187/108
f 45/26/26 44/187/108 43/188/20
s 4
f 122/38/34 129/178/107 140/39/35
f 126/41/37 137/44/40 141/42/38
f 135/40/36 140/39/35 142/189/102
f 142/189/102 141/42/38 137/44/40
f 137/44/40 139/190/100 138/191/98
f 138/191/98 131/192/45 133/45/41
f 133/45/41 132/46/42 134/48/44
f 134/48/44 136/193/105 135/40/36
f 135/40/36 142/189/102 137/44/40
f 137/44/40 138/191/98 133/45/41
f 133/45/41 134/48/44 135/40/36
f 132/46/42 119/194/106 123/47/43
f 131/49/45 138/195/98 125/50/46
s 1
f 25/54/6 23/196/4 21/197/1
f 43/188/20 42/198/22 40/52/24
f 40/52/24 39/199/23 37/200/18
f 37/200/18 35/201/16 33/53/14
f 33/53/14 31/202/12 29/203/10
f 29/203/10 27/204/8 25/54/6
f 25/54/6 21/197/1 45/26/26
f 45/26/26 43/188/20 40/52/24
f 40/52/24 37/200/18 33/53/14
f 33/53/14 29/203/10 25/54/6
f 25/54/6 45/26/26 40/52/24
f 46/57/25 20/205/3 22/206/2
f 22/206/2 24/207/5 26/208/7
f 26/208/7 28/209/9 30/210/11
f 30/210/11 32/211/13 34/55/15
f 34/55/15 36/212/17 38/213/19
f 46/57/25 22/206/2 26/208/7
f 26/208/7 30/210/11 34/55/15
f 34/55/15 38/213/19 41/56/21
f 41/56/21 44/214/108 46/57/25
f 46/57/25 26/208/7 34/55/15
s 3
f 47/58/48 48/215/30 8/59/49
s 2
f 49/61/48 50/216/30 2/62/49
f 52/64/33 51/217/29 3/65/28
s 3
f 54/67/33 53/74/29 5/68/28
f 8/218/49 48/219/30 54/37/33
f 19/220/31 8/218/49 54/37/33
f 18/71/31 19/220/31 54/37/33
f 54/37/33 17/36/31 16/70/31
s 2
f 51/72/29 52/64/33 50/32/30
s 3
f 53/74/29 54/221/33 48/75/30
s 5
f 72/76/52 87/84/60 104/77/53
f 86/79/55 85/151/95 117/80/56
f 71/78/54 104/77/53 105/82/58
f 86/79/55 118/81/57 87/84/60
f 73/83/59 105/82/58 106/85/61
f 75/87/63 74/86/62 106/85/61
f 75/87/63 107/88/64 108/89/65
f 76/90/66 108/89/65 109/91/67
f 77/92/68 109/91/67 110/93/69
f 70/95/71 86/99/55 72/96/52
f 69/98/72 85/222/95 86/99/55
f 84/100/73 85/222/95 69/98/72
f 67/102/75 83/223/96 84/100/73
f 82/103/76 83/223/96 67/102/75
f 65/105/78 81/224/97 82/103/76
f 80/106/79 81/224/97 65/105/78
f 79/108/81 80/106/79 64/107/80
f 62/110/82 78/225/70 79/108/81
f 77/111/68 78/225/70 62/110/82
f 60/113/84 76/226/66 77/111/68
f 75/114/63 76/226/66 60/113/84
f 58/116/86 74/227/62 75/114/63
f 73/117/59 74/228/62 58/118/86
f 56/120/88 71/229/54 73/117/59
f 72/96/52 71/229/54 56/120/88
f 88/121/27 89/230/88 104/122/53
f 104/122/53 89/230/88 90/124/87
f 105/125/58 90/124/87 91/126/86
f 91/128/86 92/231/85 107/129/64
f 107/129/64 92/231/85 93/131/84
f 93/131/84 94/134/83 109/133/67
f 94/134/83 95/136/82 110/135/69
f 95/136/82 96/138/31 111/137/89
f 96/138/31 97/140/80 112/139/90
f 97/140/80 98/142/78 113/141/91
f 98/142/78 99/232/77 114/143/92
f 114/143/92 99/232/77 100/144/75
f 100/144/75 101/233/74 116/146/94
f 116/146/94 101/233/74 102/147/72
f 102/147/72 103/150/71 118/149/57
f 103/150/71 88/121/27 87/123/60
f 85/151/95 84/154/73 116/152/94
f 83/153/96 115/156/93 116/152/94
f 83/153/96 82/158/76 114/155/92
f 81/157/97 113/160/91 114/155/92
f 81/157/97 80/162/79 112/159/90
f 79/161/81 111/163/89 112/159/90
f 79/161/81 78/94/70 110/93/69
s 4
f 138/164/98 139/167/100 127/165/99
f 139/167/100 137/44/40 126/41/37
f 140/39/35 129/178/107 130/168/101
f 130/168/101 128/234/39 141/170/38
f 131/49/45 120/51/47 121/171/103
f 121/171/103 119/194/106 132/46/42
f 135/40/36 136/235/105 124/173/104
f 136/174/105 134/48/44 123/47/43
f 129/178/107 122/38/34 124/236/104
f 124/236/104 123/237/43 119/176/106
f 119/176/106 121/238/103 120/239/47
f 120/239/47 125/240/46 127/177/99
f 127/177/99 126/241/37 128/242/39
f 128/242/39 130/243/101 129/178/107
f 129/178/107 124/236/104 119/176/106
f 119/176/106 120/239/47 127/177/99
f 127/177/99 128/242/39 129/178/107
s 1
f 40/24/24 41/56/21 38/30/19
s 6
g Brazo2_SpacialRoverExploreralumWhite
usemtl SpacialRoverExploreralumWhite
f 203/244/75 192/245/75 194/246/75
s 7
f 212/247/75 196/248/75 198/249/75
s 8
f 207/250/109 200/251/110 205/252/111
s 9
f 197/253/85 214/254/85 208/255/85
s 10
f 211/256/27 212/257/27 197/258/27
s 11
f 202/259/27 203/260/27 193/261/27
s 12
f 207/250/112 203/244/112 204/262/112
s 8
f 205/263/111 201/264/113 199/265/114
s 13
f 216/266/115 212/247/115 213/267/112
s 14
f 214/254/116 210/268/113 208/255/117
s 15
f 193/269/85 205/263/85 199/265/85
s 6
f 203/244/75 206/270/75 192/245/75
s 14
f 209/271/118 210/268/113 214/272/116
s 7
f 212/247/75 215/273/75 196/248/75
s 14
f 209/271/118 216/266/109 211/274/119
s 16
f 205/252/31 191/275/31 192/276/31
s 8
f 192/276/31 206/277/31 207/278/109
f 205/252/111 192/276/31 207/278/109
s 9
f 197/253/85 195/279/85 214/254/85
s 17
f 214/272/31 195/280/31 196/281/31
s 14
f 196/281/31 215/282/31 216/283/109
f 214/272/116 196/281/31 216/283/109
s 10
f 197/258/27 208/284/120 210/285/27
f 210/285/27 209/286/27 211/256/27
f 211/256/27 213/287/27 212/257/27
s 18
f 212/257/27 198/288/27 197/258/27
s 10
f 197/258/27 210/285/27 211/256/27
s 11
f 193/261/27 199/289/27 201/290/27
f 201/290/27 200/291/27 202/259/27
f 202/259/27 204/292/27 203/260/27
s 19
f 203/260/27 194/293/27 193/261/27
s 11
f 193/261/27 201/290/27 202/259/27
s 12
f 207/250/112 206/270/112 203/244/112
s 13
f 216/266/115 215/273/115 212/247/115
s 15
f 193/269/85 191/294/85 205/263/85
s 20
f 243/295/121 253/296/122 256/297/121
f 244/298/123 258/299/124 245/300/124
f 256/297/121 244/298/123 243/295/121
f 243/295/121 242/301/122 253/296/122
f 244/298/123 255/302/123 258/299/124
f 256/297/121 255/302/123 244/298/123
s 8
f 201/264/113 205/252/111 200/251/110
f 207/250/109 204/262/125 202/303/119
s 14
f 213/267/125 211/274/119 216/266/109
s 8
f 207/250/109 202/303/119 200/251/110
s 14
f 209/271/118 214/272/116 216/266/109
s 22
g Brazo2_SpacialRoverExploreralumBlack
usemtl SpacialRoverExploreralumBlack
f 157/348/137 172/349/137 171/350/137
f 155/351/138 168/352/138 154/353/137
f 151/354/137 166/355/137 165/356/137
f 149/357/138 162/358/138 148/359/138
f 160/360/137 144/361/138 174/362/137
f 159/363/137 172/349/137 158/364/137
f 155/351/138 170/365/138 169/366/138
f 152/367/138 167/368/137 166/355/137
f 149/357/138 164/369/137 163/370/138
f 147/371/138 143/372/137 146/373/137
f 159/363/137 174/362/137 173/374/138
f 157/348/137 170/365/138 156/375/138
f 154/353/137 167/368/137 153/376/138
f 151/354/137 164/369/137 150/377/138
s 23
f 162/378/139 187/379/139 188/380/139
s 22
f 146/373/137 144/361/138 145/381/138
f 147/371/138 162/358/138 161/382/138
s 24
f 186/383/140 180/384/141 176/385/141
s 25
f 144/386/27 190/387/27 177/388/27
f 173/389/27 176/390/27 175/391/27
f 174/392/27 177/388/27 176/390/27
s 26
f 173/393/142 178/394/142 172/395/142
s 27
f 169/396/143 180/397/143 181/398/143
s 28
f 167/399/31 184/400/31 166/401/31
s 29
f 164/402/144 187/379/144 163/403/144
s 25
f 143/404/27 189/405/27 190/387/27
s 30
f 171/406/145 180/397/145 170/407/145
s 28
f 168/408/31 183/409/31 167/399/31
s 31
f 165/410/146 186/411/146 164/402/146
s 32
f 161/412/147 188/380/147 189/405/147
s 33
f 171/406/148 178/394/148 179/413/148
s 28
f 169/396/31 182/414/31 168/408/31
f 166/401/31 185/415/31 165/410/31
s 22
f 157/348/137 158/364/137 172/349/137
f 155/351/138 169/366/138 168/352/138
f 151/354/137 152/367/138 166/355/137
f 149/357/138 163/370/138 162/358/138
f 160/360/137 145/381/138 144/361/138
f 159/363/137 173/374/138 172/349/137
f 155/351/138 156/375/138 170/365/138
f 152/367/138 153/376/138 167/368/137
f 149/357/138 150/377/138 164/369/137
f 147/371/138 161/382/138 143/372/137
f 159/363/137 160/360/137 174/362/137
f 157/348/137 171/350/137 170/365/138
f 154/353/137 168/352/138 167/368/137
f 151/354/137 165/356/137 164/369/137
s 23
f 162/378/139 163/403/139 187/379/139
s 22
f 146/373/137 143/372/137 144/361/138
f 147/371/138 148/359/138 162/358/138
s 24
f 190/416/141 189/417/140 188/418/140
f 188/418/140 187/419/140 186/383/140
f 186/383/140 185/420/141 184/421/141
f 186/383/140 184/421/141 183/422/140
f 190/416/141 188/418/140 186/383/140
f 177/423/141 190/416/141 186/383/140
f 186/383/140 183/422/140 182/424/141
f 182/424/141 181/425/141 180/384/141
f 180/384/141 179/426/141 178/427/141
f 178/427/141 175/428/141 176/385/141
f 176/385/141 177/423/141 186/383/140
f 186/383/140 182/424/141 180/384/141
f 180/384/141 178/427/141 176/385/141
s 25
f 144/386/27 143/404/27 190/387/27
f 173/389/27 174/392/27 176/390/27
f 174/392/27 144/386/27 177/388/27
s 26
f 173/393/142 175/429/142 178/394/142
s 27
f 169/396/143 170/407/143 180/397/143
s 28
f 167/399/31 183/409/31 184/400/31
s 29
f 164/402/144 186/411/144 187/379/144
s 25
f 143/404/27 161/412/27 189/405/27
s 30
f 171/406/145 179/413/145 180/397/145
s 28
f 168/408/31 182/414/31 183/409/31
s 31
f 165/410/146 185/415/146 186/411/146
s 32
f 161/412/147 162/378/147 188/380/147
s 33
f 171/406/148 172/395/148 178/394/148
s 28
f 169/396/31 181/398/31 182/414/31
f 166/401/31 184/400/31 185/415/31
s 34
g Brazo2_SpacialRoverExploreralumOrange
usemtl SpacialRoverExploreralumOrange
f 230/430/136 234/431/136 238/432/136
s 35
f 224/433/127 234/434/126 221/435/126
f 228/436/128 238/437/149 225/438/149
f 227/439/134 229/440/150 240/441/134
f 226/442/151 236/443/130 223/444/130
f 222/445/124 232/446/123 219/447/152
f 232/446/123 220/448/121 219/447/152
f 238/437/149 226/442/151 225/438/149
f 240/441/134 228/436/128 227/439/134
f 236/443/130 224/433/127 223/444/130
f 234/434/126 222/445/124 221/435/126
f 230/449/122 218/450/132 217/451/122
f 220/448/121 230/452/122 217/453/122
s 34
f 238/432/136 239/454/153 240/455/136
f 240/455/136 229/456/136 230/430/136
f 230/430/136 231/457/136 232/458/136
f 232/458/136 233/459/153 234/431/136
f 234/431/136 235/460/136 236/461/136
f 236/461/136 237/462/154 238/432/136
f 238/432/136 240/455/136 230/430/136
f 230/430/136 232/458/136 234/431/136
f 234/431/136 236/461/136 238/432/136
s 35
f 224/433/127 235/463/127 234/434/126
f 228/436/128 239/464/155 238/437/149
f 227/439/134 218/450/132 229/440/150
f 226/442/151 237/465/131 236/443/130
f 222/445/124 233/466/124 232/446/123
f 232/446/123 231/467/121 220/448/121
f 238/437/149 237/465/131 226/442/151
f 240/441/134 239/464/155 228/436/128
f 236/443/130 235/463/127 224/433/127
f 234/434/126 233/466/124 222/445/124
f 230/449/122 229/440/150 218/450/132
f 220/448/121 231/467/121 230/452/122
s 36
g Brazo2_Satellite
usemtl Satellite
f 266/468/156 278/469/157 267/470/158
f 363/471/159 273/472/160 284/473/161
f 442/474/162 274/475/163 275/476/164
f 271/477/165 281/478/166 282/479/167
f 268/480/168 278/469/157 279/481/169
f 442/474/162 276/482/170 265/483/171
f 272/484/172 282/479/167 283/485/173
f 268/486/168 280/487/174 269/488/175
f 265/483/171 277/489/176 266/468/156
f 272/484/172 284/473/161 273/472/160
f 441/490/177 285/491/178 274/475/163
f 270/492/179 280/487/174 281/478/166
f 275/476/164 288/493/180 276/482/170
f 283/485/173 294/494/181 295/495/182
f 279/496/169 292/497/183 280/487/174
f 277/489/176 288/493/180 289/498/184
f 283/485/173 296/499/185 284/473/161
f 274/475/163 285/491/178 286/500/186
f 281/478/166 292/497/183 293/501/187
f 277/489/176 290/502/188 278/469/157
f 363/471/159 284/473/161 296/499/185
f 275/476/164 286/500/186 287/503/189
f 281/478/166 294/494/181 282/479/167
f 279/481/169 290/502/188 291/504/190
f 363/471/159 296/499/185 307/505/191
f 287/503/189 297/506/192 298/507/193
f 293/501/187 305/508/194 294/494/181
f 290/502/188 302/509/195 291/504/190
f 288/493/180 298/507/193 299/510/196
f 294/494/181 306/511/197 295/495/182
f 292/497/183 302/512/195 303/513/198
f 289/498/184 299/510/196 300/514/199
f 295/495/182 307/505/191 296/499/185
f 286/500/186 285/491/178 297/506/192
f 292/497/183 304/515/200 293/501/187
f 290/502/188 300/514/199 301/516/201
f 299/510/196 311/517/202 300/514/199
f 307/505/191 317/518/203 318/519/204
f 297/506/192 285/491/178 308/520/205
f 303/513/198 315/521/206 304/515/200
f 301/516/201 311/517/202 312/522/207
f 363/471/159 307/505/191 318/519/204
f 297/506/192 309/523/208 298/507/193
f 305/508/194 315/521/206 316/524/209
f 301/516/201 313/525/210 302/509/195
f 298/507/193 310/526/211 299/510/196
f 306/511/197 316/524/209 317/518/203
f 303/513/198 313/527/210 314/528/212
f 310/526/211 320/529/213 321/530/214
f 316/524/209 328/531/215 317/518/203
f 313/527/210 325/532/216 314/528/212
f 311/517/202 321/530/214 322/533/217
f 317/518/203 329/534/218 318/519/204
f 308/520/205 285/491/178 319/535/219
f 315/521/206 325/532/216 326/536/220
f 311/517/202 323/537/221 312/522/207
f 363/471/159 318/519/204 329/534/218
f 309/523/208 319/535/219 320/529/213
f 315/521/206 327/538/222 316/524/209
f 313/525/210 323/537/221 324/539/223
f 322/533/217 334/540/224 323/537/221
f 363/471/159 329/534/218 340/541/225
f 319/535/219 331/542/226 320/529/213
f 326/536/220 338/543/227 327/538/222
f 324/539/223 334/540/224 335/544/228
f 321/530/214 331/542/226 332/545/229
f 327/538/222 339/546/230 328/531/215
f 324/547/223 336/548/231 325/532/216
f 322/533/217 332/545/229 333/549/232
f 329/534/218 339/546/230 340/541/225
f 319/535/219 285/491/178 330/550/233
f 326/536/220 336/548/231 337/551/234
f 332/545/229 344/552/235 333/549/232
f 339/546/230 351/553/236 340/541/225
f 330/550/233 285/491/178 341/554/237
f 336/548/231 348/555/238 337/551/234
f 334/540/224 344/552/235 345/556/239
f 363/471/159 340/541/225 351/553/236
f 331/542/226 341/554/237 342/557/240
f 338/543/227 348/555/238 349/558/241
f 334/540/224 346/559/242 335/544/228
f 332/545/229 342/557/240 343/560/243
f 338/543/227 350/561/244 339/546/230
f 336/548/231 346/562/242 347/563/245
f 345/556/239 357/564/246 346/559/242
f 343/560/243 353/565/247 354/566/248
f 349/558/241 361/567/249 350/561/244
f 347/563/245 357/568/246 358/569/250
f 343/560/243 355/570/251 344/552/235
f 351/553/236 361/567/249 362/571/252
f 341/554/237 285/491/178 352/572/253
f 347/563/245 359/573/254 348/555/238
f 345/556/239 355/570/251 356/574/255
f 363/471/159 351/553/236 362/571/252
f 341/554/237 353/565/247 342/557/240
f 349/558/241 359/573/254 360/575/256
f 355/570/251 368/576/257 356/574/255
f 363/471/159 362/571/252 374/577/258
f 353/565/247 364/578/259 365/579/260
f 359/573/254 372/580/261 360/575/256
f 357/564/246 368/576/257 369/581/262
f 353/565/247 366/582/263 354/566/248
f 361/567/249 372/580/261 373/583/264
f 357/568/246 370/584/265 358/569/250
f 355/570/251 366/582/263 367/585/266
f 361/567/249 374/577/258 362/571/252
f 352/572/253 285/491/178 364/578/259
f 359/573/254 370/584/265 371/586/267
f 369/587/262 381/588/268 370/584/265
f 367/585/266 377/589/269 378/590/270
f 374/577/258 384/591/271 385/592/272
f 364/578/259 285/491/178 375/593/273
f 371/586/267 381/588/268 382/594/274
f 367/585/266 379/595/275 368/576/257
f 363/471/159 374/577/258 385/592/272
f 364/578/259 376/596/276 365/579/260
f 371/586/267 383/597/277 372/580/261
f 369/581/262 379/595/275 380/598/278
f 365/579/260 377/589/269 366/582/263
f 373/583/264 383/597/277 384/591/271
f 379/595/275 391/599/279 380/598/278
f 376/596/276 388/600/280 377/589/269
f 384/591/271 394/601/281 395/602/282
f 381/588/268 391/603/279 392/604/283
f 377/589/269 389/605/284 378/590/270
f 384/591/271 396/606/285 385/592/272
f 375/593/273 285/491/178 386/607/286
f 381/588/268 393/608/287 382/594/274
f 379/595/275 389/605/284 390/609/288
f 363/471/159 385/592/272 396/606/285
f 376/596/276 386/607/286 387/610/289
f 383/597/277 393/608/287 394/601/281
f 392/604/283 404/611/290 393/608/287
f 390/609/288 400/612/291 401/613/292
f 363/471/159 396/606/285 407/614/293
f 386/607/286 398/615/294 387/610/289
f 394/601/281 404/611/290 405/616/295
f 390/609/288 402/617/296 391/599/279
f 387/610/289 399/618/297 388/600/280
f 395/602/282 405/616/295 406/619/298
f 392/604/283 402/620/296 403/621/299
f 388/600/280 400/612/291 389/605/284
f 396/606/285 406/619/298 407/614/293
f 386/607/286 285/491/178 397/622/300
f 402/620/296 414/623/301 403/621/299
f 400/612/291 410/624/302 411/625/303
f 406/619/298 418/626/304 407/614/293
f 397/622/300 285/491/178 408/627/305
f 404/611/290 414/623/301 415/628/306
f 400/612/291 412/629/307 401/613/292
f 363/471/159 407/614/293 418/626/304
f 398/615/294 408/627/305 409/630/308
f 404/611/290 416/631/309 405/616/295
f 402/617/296 412/629/307 413/632/310
f 399/618/297 409/630/308 410/624/302
f 405/616/295 417/633/311 406/619/298
f 416/631/309 426/634/312 427/635/313
f 413/632/310 423/636/314 424/637/315
f 409/630/308 421/638/316 410/624/302
f 417/633/311 427/635/313 428/639/317
f 413/640/310 425/641/318 414/623/301
f 410/624/302 422/642/319 411/625/303
f 418/626/304 428/639/317 429/643/320
f 408/627/305 285/491/178 419/644/321
f 415/628/306 425/641/318 426/634/312
f 411/625/303 423/636/314 412/629/307
f 363/471/159 418/626/304 429/643/320
f 408/627/305 420/645/322 409/630/308
f 419/644/321 285/491/178 430/646/323
f 425/641/318 437/647/324 426/634/312
f 423/636/314 433/648/325 434/649/326
f 363/471/159 429/643/320 440/650/327
f 419/644/321 431/651/328 420/645/322
f 427/635/313 437/647/324 438/652/329
f 423/636/314 435/653/330 424/637/315
f 421/638/316 431/651/328 432/654/331
f 427/635/313 439/655/332 428/639/317
f 425/641/318 435/656/330 436/657/333
f 421/638/316 433/648/325 422/642/319
f 429/643/320 439/655/332 440/650/327
f 438/652/329 272/484/172 439/655/332
f 436/657/333 268/486/168 269/488/175
f 433/648/325 265/483/171 266/468/156
f 440/650/327 272/484/172 273/472/160
f 430/646/323 285/491/178 441/490/177
f 436/657/333 270/492/179 437/647/324
f 434/649/326 266/468/156 267/470/158
f 363/471/159 440/650/327 273/472/160
f 430/646/323 442/474/162 431/651/328
f 437/647/324 271/477/165 438/652/329
f 434/649/326 268/480/168 435/653/330
f 432/654/331 442/474/162 265/483/171
f 266/468/156 277/489/176 278/469/157
f 442/474/162 441/490/177 274/475/163
f 271/477/165 270/492/179 281/478/166
f 268/480/168 267/470/158 278/469/157
f 442/474/162 275/476/164 276/482/170
f 272/484/172 271/477/165 282/479/167
f 268/486/168 279/496/169 280/487/174
f 265/483/171 276/482/170 277/489/176
f 272/484/172 283/485/173 284/473/161
f 270/492/179 269/488/175 280/487/174
f 275/476/164 287/503/189 288/493/180
f 283/485/173 282/479/167 294/494/181
f 279/496/169 291/658/190 292/497/183
f 277/489/176 276/482/170 288/493/180
f 283/485/173 295/495/182 296/499/185
f 281/478/166 280/487/174 292/497/183
f 277/489/176 289/498/184 290/502/188
f 275/476/164 274/475/163 286/500/186
f 281/478/166 293/501/187 294/494/181
f 279/481/169 278/469/157 290/502/188
f 287/503/189 286/500/186 297/506/192
f 293/501/187 304/515/200 305/508/194
f 290/502/188 301/516/201 302/509/195
f 288/493/180 287/503/189 298/507/193
f 294/494/181 305/508/194 306/511/197
f 292/497/183 291/658/190 302/512/195
f 289/498/184 288/493/180 299/510/196
f 295/495/182 306/511/197 307/505/191
f 292/497/183 303/513/198 304/515/200
f 290/502/188 289/498/184 300/514/199
f 299/510/196 310/526/211 311/517/202
f 307/505/191 306/511/197 317/518/203
f 303/513/198 314/528/212 315/521/206
f 301/516/201 300/514/199 311/517/202
f 297/506/192 308/520/205 309/523/208
f 305/508/194 304/515/200 315/521/206
f 301/516/201 312/522/207 313/525/210
f 298/507/193 309/523/208 310/526/211
f 306/511/197 305/508/194 316/524/209
f 303/513/198 302/512/195 313/527/210
f 310/526/211 309/523/208 320/529/213
f 316/524/209 327/538/222 328/531/215
f 313/527/210 324/547/223 325/532/216
f 311/517/202 310/526/211 321/530/214
f 317/518/203 328/531/215 329/534/218
f 315/521/206 314/528/212 325/532/216
f 311/517/202 322/533/217 323/537/221
f 309/523/208 308/520/205 319/535/219
f 315/521/206 326/536/220 327/538/222
f 313/525/210 312/522/207 323/537/221
f 322/533/217 333/549/232 334/540/224
f 319/535/219 330/550/233 331/542/226
f 326/536/220 337/551/234 338/543/227
f 324/539/223 323/537/221 334/540/224
f 321/530/214 320/529/213 331/542/226
f 327/538/222 338/543/227 339/546/230
f 324/547/223 335/659/228 336/548/231
f 322/533/217 321/530/214 332/545/229
f 329/534/218 328/531/215 339/546/230
f 326/536/220 325/532/216 336/548/231
f 332/545/229 343/560/243 344/552/235
f 339/546/230 350/561/244 351/553/236
f 336/548/231 347/563/245 348/555/238
f 334/540/224 333/549/232 344/552/235
f 331/542/226 330/550/233 341/554/237
f 338/543/227 337/551/234 348/555/238
f 334/540/224 345/556/239 346/559/242
f 332/545/229 331/542/226 342/557/240
f 338/543/227 349/558/241 350/561/244
f 336/548/231 335/659/228 346/562/242
f 345/556/239 356/574/255 357/564/246
f 343/560/243 342/557/240 353/565/247
f 349/558/241 360/575/256 361/567/249
f 347/563/245 346/562/242 357/568/246
f 343/560/243 354/566/248 355/570/251
f 351/553/236 350/561/244 361/567/249
f 347/563/245 358/569/250 359/573/254
f 345/556/239 344/552/235 355/570/251
f 341/554/237 352/572/253 353/565/247
f 349/558/241 348/555/238 359/573/254
f 355/570/251 367/585/266 368/576/257
f 353/565/247 352/572/253 364/578/259
f 359/573/254 371/586/267 372/580/261
f 357/564/246 356/574/255 368/576/257
f 353/565/247 365/579/260 366/582/263
f 361/567/249 360/575/256 372/580/261
f 357/568/246 369/587/262 370/584/265
f 355/570/251 354/566/248 366/582/263
f 361/567/249 373/583/264 374/577/258
f 359/573/254 358/569/250 370/584/265
f 369/587/262 380/660/278 381/588/268
f 367/585/266 366/582/263 377/589/269
f 374/577/258 373/583/264 384/591/271
f 371/586/267 370/584/265 381/588/268
f 367/585/266 378/590/270 379/595/275
f 364/578/259 375/593/273 376/596/276
f 371/586/267 382/594/274 383/597/277
f 369/581/262 368/576/257 379/595/275
f 365/579/260 376/596/276 377/589/269
f 373/583/264 372/580/261 383/597/277
f 379/595/275 390/609/288 391/599/279
f 376/596/276 387/610/289 388/600/280
f 384/591/271 383/597/277 394/601/281
f 381/588/268 380/660/278 391/603/279
f 377/589/269 388/600/280 389/605/284
f 384/591/271 395/602/282 396/606/285
f 381/588/268 392/604/283 393/608/287
f 379/595/275 378/590/270 389/605/284
f 376/596/276 375/593/273 386/607/286
f 383/597/277 382/594/274 393/608/287
f 392/604/283 403/621/299 404/611/290
f 390/609/288 389/605/284 400/612/291
f 386/607/286 397/622/300 398/615/294
f 394/601/281 393/608/287 404/611/290
f 390/609/288 401/613/292 402/617/296
f 387/610/289 398/615/294 399/618/297
f 395/602/282 394/601/281 405/616/295
f 392/604/283 391/603/279 402/620/296
f 388/600/280 399/618/297 400/612/291
f 396/606/285 395/602/282 406/619/298
f 402/620/296 413/640/310 414/623/301
f 400/612/291 399/618/297 410/624/302
f 406/619/298 417/633/311 418/626/304
f 404/611/290 403/621/299 414/623/301
f 400/612/291 411/625/303 412/629/307
f 398/615/294 397/622/300 408/627/305
f 404/611/290 415/628/306 416/631/309
f 402/617/296 401/613/292 412/629/307
f 399/618/297 398/615/294 409/630/308
f 405/616/295 416/631/309 417/633/311
f 416/631/309 415/628/306 426/634/312
f 413/632/310 412/629/307 423/636/314
f 409/630/308 420/645/322 421/638/316
f 417/633/311 416/631/309 427/635/313
f 413/640/310 424/661/315 425/641/318
f 410/624/302 421/638/316 422/642/319
f 418/626/304 417/633/311 428/639/317
f 415/628/306 414/623/301 425/641/318
f 411/625/303 422/642/319 423/636/314
f 408/627/305 419/644/321 420/645/322
f 425/641/318 436/657/333 437/647/324
f 423/636/314 422/642/319 433/648/325
f 419/644/321 430/646/323 431/651/328
f 427/635/313 426/634/312 437/647/324
f 423/636/314 434/649/326 435/653/330
f 421/638/316 420/645/322 431/651/328
f 427/635/313 438/652/329 439/655/332
f 425/641/318 424/661/315 435/656/330
f 421/638/316 432/654/331 433/648/325
f 429/643/320 428/639/317 439/655/332
f 438/652/329 271/477/165 272/484/172
f 436/657/333 435/656/330 268/486/168
f 433/648/325 432/654/331 265/483/171
f 440/650/327 439/655/332 272/484/172
f 436/657/333 269/488/175 270/492/179
f 434/649/326 433/648/325 266/468/156
f 430/646/323 441/490/177 442/474/162
f 437/647/324 270/492/179 271/477/165
f 434/649/326 267/470/158 268/480/168
f 432/654/331 431/651/328 442/474/162
