# Blender 5.2.0 LTS
# www.blender.org
mtllib Garra.mtl
g Garra.001_RoverModificado.012
v -0.170472 0.013812 -0.112965
v 0.031201 -0.162393 -0.120753
v -0.170264 0.004926 0.093483
v 0.031412 -0.171279 0.085695
v 0.029704 -0.162081 -0.181473
v 0.030034 -0.176185 0.146224
v -0.172619 0.014692 -0.173660
v -0.172288 0.000587 0.154037
v 0.111398 0.312989 0.170039
v 0.111004 0.329753 -0.219435
v 0.301633 0.146778 0.162692
v 0.470252 0.150362 0.154853
v 0.469865 0.166763 -0.226231
v 0.301240 0.163542 -0.226781
v 0.336940 0.587863 -0.208554
v 0.337336 0.571111 0.180686
v 0.621508 0.322823 0.169712
v 0.621113 0.339577 -0.219528
v 0.594862 0.694558 0.072956
v 0.634006 0.659093 0.101418
v 0.600871 0.689891 0.058880
v 0.640013 0.654427 0.087342
v 0.902793 0.885331 -0.122332
v 0.941936 0.849866 -0.093870
v 0.908801 0.880666 -0.136408
v 0.947943 0.845200 -0.107947
v 0.724115 0.589498 -0.118726
v 0.684971 0.624961 -0.147188
v 0.718109 0.594163 -0.104650
v 0.678964 0.629626 -0.133112
v 0.307599 0.144241 0.098996
v 0.307991 0.141310 0.160447
v 0.307392 0.153127 -0.107453
v 0.307658 0.155485 -0.168928
v 0.105658 0.318080 0.168500
v 0.105926 0.320447 0.106784
v 0.105716 0.329332 -0.099665
v 0.105323 0.332277 -0.161354
v 0.888455 0.756774 0.070751
v 0.851493 0.787618 0.106562
v 0.340152 0.204705 -0.224871
v 0.410706 0.209425 -0.224739
v 0.844573 0.794217 0.093735
v 0.881534 0.763373 0.057923
v 0.723537 0.582875 0.050314
v 0.686575 0.613721 0.086126
v 0.730459 0.576276 0.063142
v 0.693496 0.607121 0.098953
v 0.339993 0.211500 -0.382725
v 0.410545 0.216219 -0.382593
v 0.567040 0.383787 -0.145438
v 0.599505 0.352268 -0.071871
v 0.456369 0.481963 -0.176295
v 0.521266 0.425266 -0.178890
v 0.377892 0.545871 -0.062700
v 0.410322 0.520694 -0.138863
v 0.410318 0.511373 0.082280
v 0.377852 0.542893 0.008713
v 0.520989 0.413198 0.113137
v 0.456092 0.469895 0.115732
v 0.599467 0.349291 -0.000458
v 0.567037 0.374468 0.075705
v 0.768959 0.545850 -0.063710
v 0.736494 0.577371 -0.137277
v 0.690716 0.618850 -0.170730
v 0.625822 0.675546 -0.168135
v 0.579773 0.714276 -0.130702
v 0.547344 0.739453 -0.054540
v 0.547306 0.736478 0.016873
v 0.579771 0.704957 0.090441
v 0.625545 0.663478 0.123893
v 0.690442 0.606782 0.121298
v 0.736489 0.568051 0.083865
v 0.768919 0.542874 0.007703
v 0.702734 0.604781 -0.086513
v 0.720104 0.587916 -0.047151
v 0.640846 0.659732 -0.104977
v 0.675569 0.629395 -0.106365
v 0.596181 0.696175 -0.042023
v 0.613533 0.682706 -0.082774
v 0.613529 0.677546 0.039676
v 0.596158 0.694409 0.000315
v 0.675416 0.622596 0.058140
v 0.640693 0.652930 0.059528
v 0.720080 0.586152 -0.004813
v 0.702729 0.599622 0.035937
v 0.863018 0.751183 -0.040269
v 0.845646 0.768046 -0.079631
v 0.845643 0.762889 0.042819
v 0.862996 0.749417 0.002069
v 0.783608 0.816197 0.066411
v 0.818328 0.785861 0.065023
v 0.739071 0.857676 0.007197
v 0.756443 0.840812 0.046559
v 0.756446 0.845971 -0.075891
v 0.739094 0.859441 -0.035141
v 0.818481 0.792663 -0.099483
v 0.783760 0.822999 -0.098094
v 0.516790 0.330618 -0.219630
v 0.514066 0.371295 -0.217877
v 0.216127 0.351365 -0.218433
v 0.218852 0.310688 -0.220187
v 0.452122 0.425417 -0.215485
v 0.401613 0.442468 -0.214700
v 0.318087 0.436880 -0.214856
v 0.270301 0.413255 -0.215824
v 0.401454 0.449261 -0.372554
v 0.451963 0.432211 -0.373339
v 0.270142 0.420047 -0.373678
v 0.317927 0.443673 -0.372710
v 0.513907 0.378090 -0.375731
v 0.516632 0.337412 -0.377484
v 0.218692 0.317482 -0.378041
v 0.215969 0.358159 -0.376287
v 0.050456 -0.075546 0.089771
v 0.084169 -0.037033 0.091395
v -0.038464 -0.078815 0.089721
v 0.011776 -0.088726 0.089243
v -0.085753 -0.003512 0.093010
v -0.069227 -0.051937 0.090909
v -0.044123 0.075057 0.096349
v -0.077836 0.036543 0.094726
v 0.044798 0.078325 0.096400
v -0.005443 0.088236 0.096877
v 0.092087 0.003022 0.093111
v 0.075561 0.051448 0.095212
v 0.083960 -0.028119 -0.115706
v 0.050247 -0.066632 -0.117330
v 0.011568 -0.079812 -0.117858
v -0.038673 -0.069901 -0.117381
v -0.069436 -0.043024 -0.116193
v -0.085964 0.005401 -0.114092
v -0.078044 0.045457 -0.112376
v -0.044331 0.083971 -0.110752
v -0.005652 0.097150 -0.110224
v 0.044589 0.087238 -0.110701
v 0.075350 0.060362 -0.111889
v 0.091878 0.011936 -0.113990
v 0.959652 0.824416 -0.044900
v 0.937896 0.845536 -0.094195
v 0.900927 0.879037 -0.121214
v 0.857441 0.917027 -0.119475
v 0.820283 0.948281 -0.089268
v 0.798552 0.965154 -0.038234
v 0.798521 0.962752 0.019345
v 0.820274 0.941632 0.068641
v 0.857245 0.908131 0.095659
v 0.900732 0.870141 0.093920
v 0.937890 0.838887 0.063713
v 0.959620 0.822017 0.012679
v 0.921197 0.826457 -0.095000
v 0.942951 0.805337 -0.045704
v 0.884029 0.851060 0.093115
v 0.840544 0.889050 0.094854
v 0.781850 0.946072 -0.039038
v 0.803582 0.929204 -0.090072
v 0.942918 0.802937 0.011874
v 0.921188 0.819806 0.062909
v 0.803574 0.922553 0.067836
v 0.781820 0.943673 0.018541
v 0.840742 0.897950 -0.120279
v 0.884225 0.859959 -0.122018
v 0.919208 0.861318 -0.080488
v 0.941925 0.839265 -0.029015
v 0.856468 0.916695 -0.091340
v 0.901873 0.877026 -0.093156
v 0.816265 0.949040 -0.023815
v 0.838954 0.931424 -0.077104
v 0.838964 0.925851 0.054933
v 0.816248 0.947904 0.003460
v 0.901704 0.870473 0.065785
v 0.856298 0.910142 0.067601
v 0.941908 0.838128 -0.001740
v 0.919218 0.855744 0.051549
v 0.941888 0.836675 0.033119
v 0.902576 0.836732 0.050747
v 0.925266 0.819116 -0.002541
v 0.799605 0.928891 0.002658
v 0.822321 0.906838 0.054132
v 0.885231 0.858014 -0.093957
v 0.839824 0.897683 -0.092142
v 0.925281 0.820252 -0.029816
v 0.902566 0.842305 -0.081289
v 0.839656 0.891129 0.066800
v 0.885062 0.851460 0.064984
v 0.822311 0.912413 -0.077905
v 0.799621 0.930028 -0.024616
v 0.766604 0.649564 -0.102314
v 0.893440 0.794463 -0.096206
v 0.854295 0.829926 -0.124668
v 0.727459 0.685029 -0.130776
v 0.899447 0.789798 -0.110282
v 0.772612 0.644898 -0.116390
v 0.733468 0.680364 -0.144852
v 0.860303 0.825261 -0.138744
v 0.759490 0.656541 -0.111665
v 0.890583 0.806302 -0.105351
v 0.868662 0.826161 -0.121290
v 0.737568 0.676400 -0.127603
v 0.893948 0.803689 -0.113234
v 0.762854 0.653928 -0.119547
v 0.740933 0.673787 -0.135486
v 0.872026 0.823550 -0.129172
v 0.710452 0.815080 0.064158
v 0.749596 0.779614 0.092619
v 0.704444 0.819745 0.078234
v 0.743588 0.784280 0.106696
v 0.716588 0.809731 0.071823
v 0.836468 0.946683 0.077596
v 0.861520 0.923987 0.095811
v 0.832624 0.949670 0.086605
v 0.857676 0.926972 0.104820
v 0.737794 0.790019 0.099047
v 0.741641 0.787034 0.090038
v 0.712741 0.812716 0.080831
v 0.796606 0.722009 -0.034779
v 0.786649 0.731671 -0.057337
v 0.767929 0.748637 -0.071019
v 0.748028 0.766023 -0.070223
v 0.729219 0.781842 -0.054933
v 0.719276 0.789563 -0.031579
v 0.719260 0.788348 -0.002445
v 0.729214 0.778684 0.020113
v 0.747936 0.761720 0.033795
v 0.767836 0.744332 0.032999
v 0.786645 0.728513 0.017709
v 0.796588 0.720792 -0.005645
v 0.829835 0.781007 -0.055257
v 0.839791 0.771344 -0.032699
v 0.839776 0.770129 -0.003565
v 0.829832 0.777848 0.019789
v 0.811021 0.793668 0.035079
v 0.791122 0.811055 0.035874
v 0.772400 0.828019 0.022193
v 0.762446 0.837682 -0.000366
v 0.762462 0.838899 -0.029499
v 0.772406 0.831178 -0.052853
v 0.791215 0.815358 -0.068143
v 0.811113 0.797971 -0.068939
v 0.921197 0.826457 -0.095000
v 0.942951 0.805337 -0.045704
v 0.884029 0.851060 0.093115
v 0.840544 0.889050 0.094854
v 0.781850 0.946072 -0.039038
v 0.803582 0.929204 -0.090072
v 0.942918 0.802937 0.011874
v 0.921188 0.819806 0.062909
v 0.803574 0.922553 0.067836
v 0.781820 0.943673 0.018541
v 0.840742 0.897950 -0.120279
v 0.884225 0.859959 -0.122018
v 0.902576 0.836732 0.050747
v 0.925266 0.819116 -0.002541
v 0.799605 0.928891 0.002658
v 0.822321 0.906838 0.054132
v 0.885231 0.858014 -0.093957
v 0.839824 0.897683 -0.092142
v 0.925281 0.820252 -0.029816
v 0.902566 0.842305 -0.081289
v 0.839656 0.891129 0.066800
v 0.885062 0.851460 0.064984
v 0.822311 0.912413 -0.077905
v 0.799621 0.930028 -0.024616
v 0.340073 0.208103 -0.303798
v 0.410626 0.212822 -0.303666
v 0.513987 0.374692 -0.296804
v 0.516711 0.334015 -0.298557
v 0.218772 0.314085 -0.299114
v 0.216048 0.354762 -0.297360
v 0.452043 0.428814 -0.294412
v 0.401534 0.445863 -0.293627
v 0.270221 0.416652 -0.294751
v 0.318007 0.440277 -0.293783
vn -0.0010 0.0430 -0.9991
vn 0.7527 -0.6580 -0.0220
vn 0.7527 -0.6580 -0.0219
vn -0.6577 -0.7495 -0.0757
vn -0.6577 -0.7494 -0.0757
vn -0.6576 -0.7532 0.0123
vn -0.6576 -0.7532 0.0124
vn 0.0110 -0.0598 0.9981
vn 0.0120 -0.0616 0.9980
vn 0.0015 -0.0425 0.9991
vn -0.0002 0.0416 -0.9991
vn -0.0003 0.0417 -0.9991
vn -0.6583 -0.7521 -0.0317
vn 0.0192 -0.9989 -0.0430
vn 0.7527 -0.6577 -0.0291
vn 0.6583 0.7521 0.0317
vn 0.0010 -0.0430 0.9991
vn -0.7527 0.6577 0.0291
vn 0.7527 -0.6574 -0.0362
vn -0.7527 0.6580 0.0220
vn -0.7527 0.6574 0.0362
vn -0.0001 -0.0451 0.9990
vn -0.0002 -0.0449 0.9990
vn -0.0003 -0.0445 0.9990
vn -0.0020 0.0405 -0.9992
vn 0.1942 -0.1290 -0.9724
vn 0.5327 -0.4356 -0.7256
vn 0.5326 -0.4357 -0.7256
vn -0.5344 0.4966 -0.6840
vn -0.1977 0.2134 -0.9568
vn -0.7273 0.6463 -0.2310
vn -0.7272 0.6246 0.2847
vn 0.7272 -0.6246 -0.2847
vn 0.7272 -0.6464 0.2310
vn 0.5344 -0.4966 0.6840
vn 0.1977 -0.2134 0.9568
vn -0.1942 0.1290 0.9724
vn -0.5327 0.4357 0.7256
vn -0.5343 0.4966 -0.6840
vn 0.5343 -0.4966 0.6840
vn 0.9978 0.0667 0.0019
vn -0.9978 -0.0668 -0.0019
vn -0.9978 -0.0667 -0.0019
vn -0.6098 0.7918 0.0347
vn -0.2601 0.9647 0.0418
vn 0.1942 -0.1291 -0.9724
vn -0.5326 0.4357 0.7256
vn 0.6583 0.7520 0.0317
vn -0.6565 -0.7537 -0.0296
vn -0.6566 -0.7536 -0.0292
vn -0.6559 -0.7542 -0.0308
vn -0.6558 -0.7542 -0.0324
vn -0.6558 -0.7543 -0.0311
vn -0.6560 -0.7541 -0.0327
vn -0.6566 -0.7534 -0.0343
vn -0.6565 -0.7536 -0.0340
vn -0.6589 -0.7515 -0.0349
vn -0.6578 -0.7524 -0.0349
vn -0.6575 -0.7526 -0.0350
vn -0.6578 -0.7527 -0.0286
vn -0.6575 -0.7529 -0.0286
vn -0.6592 -0.7512 -0.0349
vn -0.6591 -0.7515 -0.0285
vn -0.6607 -0.7499 -0.0326
vn -0.6602 -0.7503 -0.0339
vn -0.6600 -0.7504 -0.0343
vn -0.6589 -0.7517 -0.0285
vn -0.6601 -0.7506 -0.0294
vn -0.6600 -0.7507 -0.0291
vn -0.6609 -0.7498 -0.0323
vn -0.6607 -0.7500 -0.0306
vn -0.6608 -0.7499 -0.0310
vn 0.6583 0.7521 0.0316
vn 0.4988 0.8659 0.0368
vn 0.1292 0.9907 0.0425
vn 0.0668 -0.9968 -0.0430
vn 0.0488 -0.1281 0.9906
vn 0.0026 0.0365 -0.9993
vn 0.6580 0.7523 0.0318
vn 0.6583 0.7521 0.0311
vn 0.6584 0.7520 0.0315
vn 0.6582 0.7521 0.0316
vn -0.0000 -0.0455 0.9990
vn -0.0020 0.0408 -0.9992
vn -0.0023 0.0415 -0.9991
vn -0.0021 0.0407 -0.9992
vn -0.1943 0.1290 0.9724
vn -0.8307 -0.5562 -0.0231
vn -0.4411 -0.8967 -0.0381
vn -0.8975 0.4406 0.0199
vn -0.0668 0.9968 0.0430
vn -0.5567 0.8299 0.0363
vn 0.8307 0.5562 0.0231
vn 0.4411 0.8967 0.0381
vn 0.8975 -0.4406 -0.0199
vn 0.5567 -0.8299 -0.0363
vn 0.3755 -0.2916 -0.8798
vn -0.6524 0.5910 -0.4744
vn -0.6524 0.5911 -0.4744
vn 0.7272 -0.6463 0.2310
vn 0.7273 -0.6463 0.2310
vn -0.7272 0.6463 -0.2310
vn 0.5327 -0.4357 -0.7256
vn 0.6584 0.7520 0.0317
vn -0.3755 0.2916 0.8798
vn 0.6524 -0.5911 0.4743
vn 0.6522 -0.5910 0.4747
vn 0.9978 0.0668 0.0019
vn 0.6525 -0.5913 0.4739
vn 0.6583 0.7521 0.0318
vn 0.4326 -0.4124 0.8017
vn -0.4326 0.4125 -0.8017
vn 0.6160 -0.5141 -0.5969
vn -0.6160 0.5141 0.5968
vn -0.6160 0.5141 0.5969
vn -0.6524 0.5911 -0.4743
vn 0.6524 -0.5911 0.4744
vn 0.6584 0.7520 0.0316
vn 0.6524 -0.5911 0.4742
vn -0.6524 0.5910 -0.4745
vn 0.6525 -0.5911 0.4742
vn -0.6521 0.5908 -0.4750
vn 0.6558 0.7543 0.0327
vn 0.6557 0.7544 0.0309
vn 0.6564 0.7538 0.0293
vn 0.6557 0.7544 0.0308
vn 0.6565 0.7536 0.0343
vn 0.6564 0.7536 0.0342
vn 0.6609 0.7498 0.0325
vn 0.6609 0.7498 0.0326
vn 0.6602 0.7503 0.0341
vn 0.6577 0.7528 0.0283
vn 0.6601 0.7506 0.0291
vn 0.6590 0.7516 0.0284
vn 0.6590 0.7516 0.0283
vn 0.6577 0.7525 0.0351
vn 0.6576 0.7528 0.0284
vn 0.6590 0.7513 0.0351
vn 0.6576 0.7525 0.0351
vn 0.6602 0.7505 0.0292
vn 0.6609 0.7499 0.0307
vn 0.6609 0.7499 0.0306
vt 0.818999 0.778579
vt 0.914116 0.629338
vt 0.914250 0.778493
vt 0.819558 0.776844
vt 0.797985 0.627646
vt 0.819560 0.626737
vt 0.914250 0.607743
vt 0.818864 0.629424
vt 0.818692 0.607829
vt 0.915119 0.626737
vt 0.819713 0.605144
vt 0.914965 0.605144
vt 0.891213 0.476628
vt 0.812319 0.505639
vt 0.812040 0.418794
vt 0.811243 0.242324
vt 0.890323 0.270676
vt 0.890586 0.328813
vt 0.949127 0.418229
vt 0.890991 0.418491
vt 0.987917 0.416256
vt 0.948723 0.328551
vt 0.987521 0.328509
vt 0.724791 0.329561
vt 0.672336 0.417680
vt 0.671940 0.329934
vt 0.811636 0.329170
vt 0.702434 0.776609
vt 0.702733 0.627455
vt 0.895523 0.477370
vt 0.939836 0.465060
vt 0.928300 0.509248
vt 0.797126 0.778598
vt 0.701562 0.778493
vt 0.680153 0.629259
vt 0.701730 0.628386
vt 0.680476 0.776565
vt 0.681162 0.626459
vt 0.797289 0.628491
vt 0.915121 0.776844
vt 0.626731 0.450373
vt 0.578989 0.473778
vt 0.578989 0.450373
vt 0.507357 0.230394
vt 0.494830 0.202378
vt 0.507357 0.202378
vt 0.517136 0.287214
vt 0.532565 0.270977
vt 0.532565 0.287214
vt 0.517136 0.217712
vt 0.532565 0.234161
vt 0.517136 0.234161
vt 0.517136 0.180764
vt 0.532565 0.164103
vt 0.532565 0.180764
vt 0.507357 0.173801
vt 0.494830 0.145344
vt 0.507357 0.145344
vt 0.507357 0.344240
vt 0.494830 0.315784
vt 0.507357 0.315784
vt 0.507357 0.116716
vt 0.494830 0.088480
vt 0.507357 0.088480
vt 0.517136 0.004110
vt 0.532565 0.020771
vt 0.517136 0.020771
vt 0.507357 0.059955
vt 0.494830 0.031939
vt 0.507357 0.031939
vt 0.507357 0.287155
vt 0.494830 0.258919
vt 0.507357 0.258919
vt 0.517136 0.057719
vt 0.532565 0.074168
vt 0.517136 0.074168
vt 0.638821 0.473778
vt 0.638821 0.450373
vt 0.756065 0.473778
vt 0.743975 0.450373
vt 0.756065 0.450373
vt 0.719595 0.473778
vt 0.703799 0.450373
vt 0.719595 0.450373
vt 0.494830 0.287155
vt 0.494830 0.116716
vt 0.507357 0.003361
vt 0.494830 0.003361
vt 0.494830 0.230394
vt 0.517136 0.110984
vt 0.532565 0.127221
vt 0.517136 0.127221
vt 0.532565 0.217712
vt 0.532565 0.324096
vt 0.532565 0.110984
vt 0.517136 0.164103
vt 0.517136 0.270977
vt 0.532565 0.057719
vt 0.489613 0.131072
vt 0.829839 0.948499
vt 0.844705 0.974433
vt 0.818216 0.955939
vt 0.829839 0.935019
vt 0.912270 0.918134
vt 0.912270 0.935361
vt 0.897404 0.909427
vt 0.923894 0.956377
vt 0.909606 0.981126
vt 0.897350 0.974683
vt 0.909657 0.983020
vt 0.897404 0.976677
vt 0.923894 0.958183
vt 0.912270 0.937263
vt 0.912270 0.950743
vt 0.923894 0.929727
vt 0.897351 0.911421
vt 0.909606 0.904978
vt 0.856818 0.891058
vt 0.885343 0.890970
vt 0.885975 0.904853
vt 0.885292 0.997290
vt 0.885921 0.983402
vt 0.818216 0.927483
vt 0.844759 0.909178
vt 0.856189 0.904945
vt 0.856135 0.983495
vt 0.818216 0.930165
vt 0.832453 0.905328
vt 0.844706 0.911671
vt 0.856767 0.997378
vt 0.832504 0.983370
vt 0.844759 0.976927
vt 0.829840 0.937605
vt 0.818216 0.958621
vt 0.829840 0.951085
vt 0.885292 0.888814
vt 0.885921 0.902702
vt 0.856135 0.902609
vt 0.856766 0.888726
vt 0.832504 0.902734
vt 0.856189 0.981159
vt 0.832453 0.980776
vt 0.885974 0.981251
vt 0.856818 0.995046
vt 0.885343 0.995134
vt 0.909657 0.903084
vt 0.912270 0.948841
vt 0.923894 0.927921
vt 0.663201 0.450373
vt 0.663201 0.473778
vt 0.678997 0.473778
vt 0.743975 0.473778
vt 0.558039 0.473778
vt 0.678997 0.450373
vt 0.703799 0.473778
vt 0.803807 0.450373
vt 0.803807 0.473778
vt 0.797685 0.776800
vt 0.865200 0.505469
vt 0.864095 0.242086
vt 0.725195 0.419186
vt 0.913902 0.509248
vt 0.902576 0.502709
vt 0.895483 0.490423
vt 0.902746 0.465036
vt 0.914112 0.458521
vt 0.928510 0.458521
vt 0.946929 0.477346
vt 0.946889 0.490400
vt 0.939666 0.502733
vt 0.679605 0.778412
vt 0.626731 0.473778
vt 0.494830 0.173801
vt 0.494830 0.344240
vt 0.532565 0.004110
vt 0.494830 0.059955
vt 0.517136 0.324096
vt 0.558039 0.450373
vt 0.929180 0.609372
vt 0.990595 0.621480
vt 0.929180 0.621480
vt 0.929181 0.745772
vt 0.990595 0.757879
vt 0.929181 0.757879
vt 0.929181 0.718492
vt 0.990595 0.730599
vt 0.929181 0.730599
vt 0.929181 0.691212
vt 0.990595 0.703319
vt 0.929181 0.703319
vt 0.929181 0.676040
vt 0.990595 0.663932
vt 0.990595 0.676040
vt 0.929180 0.648760
vt 0.990595 0.636652
vt 0.990595 0.648760
vt 0.908920 0.552420
vt 0.991114 0.582047
vt 0.908920 0.582047
vt 0.908920 0.589947
vt 0.582489 0.317517
vt 0.562160 0.244308
vt 0.582489 0.244308
vt 0.716648 0.317517
vt 0.696319 0.244308
vt 0.716648 0.244308
vt 0.671754 0.317517
vt 0.651774 0.244308
vt 0.671754 0.244308
vt 0.627253 0.317517
vt 0.607098 0.244308
vt 0.627253 0.244308
vt 0.805912 0.317517
vt 0.785932 0.244308
vt 0.805912 0.244308
vt 0.761412 0.317517
vt 0.741257 0.244308
vt 0.761411 0.244308
vt 0.608687 0.822261
vt 0.616587 0.851888
vt 0.608687 0.851888
vt 0.592237 0.963953
vt 0.628612 0.993580
vt 0.592237 0.993580
vt 0.652963 0.889415
vt 0.616587 0.859788
vt 0.652963 0.859788
vt 0.628612 0.918525
vt 0.592237 0.926426
vt 0.592237 0.918525
vt 0.616587 0.897316
vt 0.652963 0.897316
vt 0.803807 0.426967
vt 0.678997 0.426967
vt 0.578989 0.426967
vt 0.719595 0.426967
vt 0.743975 0.426967
vt 0.562160 0.317517
vt 0.537595 0.244308
vt 0.785932 0.317517
vt 0.741257 0.317517
vt 0.696319 0.317517
vt 0.651774 0.317517
vt 0.607098 0.317517
vt 0.695109 0.917171
vt 0.675457 0.894803
vt 0.700162 0.894726
vt 0.649450 0.981720
vt 0.637244 0.960729
vt 0.659301 0.953721
vt 0.680403 0.974121
vt 0.700055 0.996489
vt 0.675350 0.996566
vt 0.726062 0.909572
vt 0.708967 0.925115
vt 0.882102 0.885206
vt 0.836291 0.810139
vt 0.903840 0.799880
vt 0.663201 0.426967
vt 0.929181 0.663932
vt 0.990595 0.594200
vt 0.929180 0.594200
vt 0.929180 0.636652
vt 0.628612 0.956053
vt 0.628612 0.963953
vt 0.652963 0.851888
vt 0.628612 0.926426
vt 0.616587 0.822261
vt 0.660863 0.822261
vt 0.652963 0.822261
vt 0.991114 0.544519
vt 0.991114 0.552420
vt 0.908920 0.514892
vt 0.991114 0.514892
vt 0.901020 0.544519
vt 0.908920 0.544519
vt 0.680462 0.917217
vt 0.666605 0.925217
vt 0.695049 0.974075
vt 0.708907 0.966075
vt 0.649557 0.909756
vt 0.659301 0.937777
vt 0.738268 0.930563
vt 0.716210 0.937571
vt 0.637244 0.930930
vt 0.738268 0.960362
vt 0.716210 0.953515
vt 0.725955 0.981536
vt 0.666545 0.966177
vt 0.584336 0.963953
vt 0.584336 0.993580
vt 0.703799 0.426967
vt 0.756065 0.426967
vt 0.626731 0.426967
vt 0.638821 0.426967
vt 0.990595 0.609372
vt 0.990595 0.745772
vt 0.990595 0.718492
vt 0.990595 0.691212
vt 0.991114 0.589947
vt 0.616587 0.889415
vt 0.558039 0.426967
vt 0.537595 0.317517
vt 0.921617 0.817656
vt 0.921617 0.874948
vt 0.911358 0.885206
vt 0.864589 0.877952
vt 0.843545 0.856907
vt 0.836291 0.839395
vt 0.846549 0.799880
vt 0.592237 0.956053
vt 0.660863 0.851888
vt 0.901020 0.514892
vt 0.694918 0.553132
vt 0.687018 0.523505
vt 0.694918 0.523505
vt 0.694918 0.561032
vt 0.813426 0.590659
vt 0.694918 0.590659
vt 0.813426 0.553132
vt 0.813426 0.523505
vt 0.694918 0.598560
vt 0.813426 0.561032
vt 0.687018 0.501767
vt 0.785346 0.497342
vt 0.785346 0.501767
vt 0.785346 0.518358
vt 0.687018 0.522782
vt 0.687018 0.518358
vt 0.687018 0.480751
vt 0.785346 0.480751
vt 0.583686 0.914547
vt 0.598318 0.898963
vt 0.603200 0.901804
vt 0.574761 0.816516
vt 0.555477 0.907992
vt 0.555471 0.816517
vt 0.579910 0.907991
vt 0.579904 0.816516
vt 0.599193 0.816516
vt 0.687018 0.553132
vt 0.813426 0.598560
vt 0.687018 0.497342
vt 0.785346 0.522782
vt 0.574767 0.907991
vt 0.603987 0.816560
vt 0.611886 0.352316
vt 0.599433 0.416633
vt 0.599433 0.352316
vt 0.559724 0.352316
vt 0.547170 0.416633
vt 0.547170 0.352316
vt 0.664198 0.352316
vt 0.651846 0.416633
vt 0.651846 0.352316
vt 0.533454 0.352316
vt 0.521001 0.416633
vt 0.521001 0.352316
vt 0.638155 0.352316
vt 0.625601 0.416633
vt 0.625601 0.352316
vt 0.994395 0.872300
vt 0.962003 0.858007
vt 0.994395 0.858007
vt 0.994395 0.817689
vt 0.962003 0.803291
vt 0.994395 0.803291
vt 0.994395 0.790191
vt 0.962003 0.775898
vt 0.994395 0.775898
vt 0.994395 0.899799
vt 0.962003 0.885401
vt 0.994395 0.885401
vt 0.796537 0.803056
vt 0.780657 0.789351
vt 0.799488 0.789292
vt 0.994395 0.912876
vt 0.962003 0.927063
vt 0.962003 0.912876
vt 0.533454 0.416633
vt 0.638155 0.416633
vt 0.585766 0.352316
vt 0.585766 0.416633
vt 0.573415 0.416633
vt 0.573415 0.352316
vt 0.507335 0.352316
vt 0.611886 0.416633
vt 0.962003 0.830767
vt 0.994395 0.830767
vt 0.994395 0.762844
vt 0.962003 0.872300
vt 0.962003 0.790191
vt 0.962003 0.899799
vt 0.962003 0.844954
vt 0.773368 0.808991
vt 0.762840 0.799637
vt 0.783579 0.803096
vt 0.817305 0.799505
vt 0.806748 0.808909
vt 0.799412 0.862455
vt 0.796489 0.848710
vt 0.806700 0.842815
vt 0.766902 0.820111
vt 0.762763 0.852300
vt 0.753450 0.836284
vt 0.766902 0.831859
vt 0.813167 0.819946
vt 0.753450 0.815785
vt 0.826619 0.836021
vt 0.826619 0.815521
vt 0.813167 0.831695
vt 0.817229 0.852168
vt 0.773320 0.842897
vt 0.780580 0.862513
vt 0.783531 0.848750
vt 0.559724 0.416633
vt 0.664198 0.416633
vt 0.962003 0.817689
vt 0.994395 0.927063
vt 0.507335 0.416633
vt 0.962003 0.762844
vt 0.994395 0.844954
s 1
g off
g Garra.001_SpacialRoverExploreralumWhite
usemtl SpacialRoverExploreralumWhite
f 31/1/1 3/2/1 36/3/1
s 2
f 34/4/2 2/5/3 5/6/3
s 3
f 8/7/4 4/8/5 6/9/5
s 4
f 7/10/6 2/11/7 1/12/6
s 5
f 11/13/8 17/14/9 16/15/10
s 6
f 18/16/11 14/17/12 10/18/1
s 7
f 10/18/13 11/19/13 9/20/13
s 8
f 12/21/14 14/22/14 13/23/14
s 9
f 18/24/15 12/25/15 13/26/15
s 10
f 16/15/16 18/24/16 15/27/16
s 11
f 2/5/17 37/28/17 1/29/17
s 12
f 219/30/16 223/31/16 227/32/16
s 13
f 10/18/18 16/15/18 15/27/18
s 14
f 32/33/19 4/8/19 31/1/19
s 15
f 35/34/20 3/35/20 8/36/20
s 16
f 1/29/21 38/37/21 7/38/21
s 17
f 32/33/22 8/36/23 6/39/24
s 18
f 34/4/25 7/10/25 38/40/25
s 19
f 267/41/15 42/42/15 265/43/15
s 20
f 162/44/26 140/45/27 151/46/27
s 21
f 169/47/28 184/48/26 179/49/28
f 174/50/29 185/51/30 171/52/30
f 173/53/31 182/54/32 177/55/31
s 20
f 152/56/33 150/57/34 157/58/34
f 160/59/32 144/60/31 155/61/31
f 158/62/35 148/63/36 153/64/36
s 21
f 170/65/33 187/66/34 167/67/34
s 20
f 154/68/37 146/69/38 159/70/38
f 156/71/39 142/72/30 161/73/30
s 21
f 168/74/40 181/75/36 165/76/36
s 22
f 100/77/41 267/41/41 266/78/41
s 23
f 102/79/42 269/80/43 268/81/43
s 24
f 106/82/44 273/83/45 272/84/44
s 20
f 140/45/27 152/56/33 151/46/27
f 148/63/36 154/68/37 153/64/36
f 155/61/31 143/85/39 156/71/39
f 158/62/35 150/57/34 149/86/35
f 160/87/32 146/69/38 145/88/32
f 162/44/26 142/72/30 141/89/46
s 21
f 166/90/37 183/91/47 163/92/47
f 174/50/29 177/55/31 176/93/29
f 178/94/33 169/47/28 179/49/28
f 180/95/37 165/76/36 181/75/36
f 183/91/47 164/96/32 163/92/47
f 185/51/30 172/97/26 171/52/30
f 167/67/34 186/98/40 168/74/40
s 25
f 150/57/16 175/99/16 149/86/16
f 167/100/48 168/101/16 144/102/48
f 170/103/48 167/100/48 144/102/48
f 175/104/16 173/105/16 174/106/16
f 139/107/16 140/108/16 163/109/16
s 26
f 245/110/49 262/111/50 244/112/51
f 254/113/52 244/112/51 263/114/53
f 249/115/54 254/113/52 255/116/55
f 244/112/51 254/113/52 249/115/54
f 248/117/56 249/115/54 255/116/55
f 242/118/57 243/119/58 260/120/59
f 255/116/55 260/120/59 248/117/56
f 250/121/60 257/122/61 245/110/49
s 25
f 170/103/48 145/123/16 169/124/16
s 26
f 262/111/50 263/114/53 244/112/51
f 261/125/62 242/118/57 260/120/59
f 256/126/63 257/122/61 250/121/60
f 246/127/64 247/128/65 252/129/66
f 256/126/63 250/121/60 251/130/67
f 247/128/65 242/118/57 261/125/62
f 256/126/63 251/130/67 240/131/68
f 247/128/65 261/125/62 252/129/66
f 259/132/69 256/126/63 240/131/68
f 253/133/70 246/127/64 252/129/66
f 240/131/68 241/134/71 259/132/69
f 260/120/59 243/119/58 248/117/56
f 257/122/61 262/111/50 245/110/49
f 246/127/64 253/133/70 258/135/72
f 246/127/64 258/135/72 241/134/71
f 241/134/71 258/135/72 259/132/69
s 25
f 148/136/73 171/137/73 172/138/16
f 147/139/16 172/138/16 146/140/16
f 168/101/16 165/141/16 143/142/16
f 168/101/16 143/142/16 144/102/48
f 147/139/16 148/136/73 172/138/16
f 166/143/16 142/144/16 165/141/16
f 172/138/16 169/124/16 146/140/16
f 166/143/16 141/145/16 142/144/16
f 149/146/16 171/137/73 148/136/73
f 166/143/16 140/108/16 141/145/16
f 149/146/16 174/106/16 171/137/73
f 163/109/16 140/108/16 166/143/16
f 149/146/16 175/104/16 174/106/16
f 164/147/16 139/107/16 163/109/16
f 145/123/16 146/140/16 169/124/16
f 165/141/16 142/144/16 143/142/16
f 150/148/16 173/105/16 175/104/16
f 150/148/16 164/147/16 173/105/16
f 150/148/16 139/107/16 164/147/16
f 170/103/48 144/102/48 145/123/16
s 24
f 100/77/16 270/149/74 103/150/74
f 270/149/74 104/151/75 103/150/74
f 101/152/18 272/84/44 269/80/18
s 27
f 41/153/76 265/43/76 42/42/76
s 24
f 271/154/75 105/155/45 104/151/75
s 28
f 102/79/13 264/156/13 41/157/13
s 29
f 31/1/1 4/8/1 3/2/1
s 2
f 34/4/2 33/158/2 2/5/3
s 3
f 8/7/4 3/2/4 4/8/5
s 4
f 7/10/6 5/6/7 2/11/7
s 5
f 16/15/10 9/20/10 11/13/8
f 11/13/8 12/159/77 17/14/9
s 6
f 10/18/1 15/27/1 18/16/11
f 18/16/11 13/160/78 14/17/12
s 7
f 10/18/13 14/22/13 11/19/13
s 8
f 12/21/14 11/19/14 14/22/14
s 9
f 18/24/15 17/161/15 12/25/15
s 10
f 16/15/16 17/161/16 18/24/16
s 30
f 2/5/17 33/158/17 37/28/17
s 12
f 227/32/16 216/162/79 217/163/16
f 217/163/16 218/164/80 219/30/16
f 219/30/16 220/165/73 221/166/16
f 221/166/16 222/167/16 223/31/16
f 223/31/16 224/168/81 225/169/16
f 225/169/16 226/170/82 227/32/16
f 227/32/16 217/163/16 219/30/16
f 219/30/16 221/166/16 223/31/16
f 223/31/16 225/169/16 227/32/16
s 13
f 10/18/18 9/20/18 16/15/18
s 31
f 32/33/19 6/39/19 4/8/19
s 15
f 35/34/20 36/171/20 3/35/20
s 32
f 1/29/21 37/28/21 38/37/21
s 17
f 32/33/22 35/34/83 8/36/23
s 33
f 34/4/84 5/6/85 7/10/86
s 34
f 267/41/15 99/172/15 42/42/15
s 20
f 162/44/26 141/89/46 140/45/27
s 21
f 169/47/28 172/97/26 184/48/26
f 174/50/29 176/93/29 185/51/30
f 173/53/31 164/96/32 182/54/32
s 20
f 152/56/33 139/173/33 150/57/34
f 160/59/32 145/174/32 144/60/31
f 158/62/35 149/86/35 148/63/36
s 21
f 170/65/33 178/175/33 187/66/34
s 20
f 154/68/37 147/176/87 146/69/38
f 156/71/39 143/85/39 142/72/30
s 21
f 168/74/40 186/98/40 181/75/36
s 22
f 100/77/41 99/172/41 267/41/41
s 23
f 102/79/42 101/152/42 269/80/43
s 24
f 106/82/44 105/155/45 273/83/45
s 20
f 140/45/27 139/173/33 152/56/33
f 148/63/36 147/176/87 154/68/37
f 155/61/31 144/60/31 143/85/39
f 158/62/35 157/58/34 150/57/34
f 160/87/32 159/70/38 146/69/38
f 162/44/26 161/73/30 142/72/30
s 21
f 166/90/37 180/95/37 183/91/47
f 174/50/29 173/53/31 177/55/31
f 178/94/33 170/177/33 169/47/28
f 180/95/37 166/90/37 165/76/36
f 183/91/47 182/54/32 164/96/32
f 185/51/30 184/48/26 172/97/26
f 167/67/34 187/66/34 186/98/40
s 24
f 100/77/16 266/78/16 270/149/74
f 270/149/74 271/154/75 104/151/75
f 101/152/18 106/82/44 272/84/44
s 35
f 41/153/76 264/178/76 265/43/76
s 24
f 271/154/75 273/83/45 105/155/45
s 36
f 102/79/13 268/81/13 264/156/13
s 37
g Garra.001_SpacialRoverExploreralumGray
usemtl SpacialRoverExploreralumGray
f 120/179/88 130/180/89 117/181/89
f 122/182/90 132/183/43 119/184/43
f 124/185/91 134/186/92 121/187/92
f 126/188/93 136/189/94 123/190/94
f 125/191/41 127/192/95 138/193/41
f 115/194/96 129/195/76 128/196/96
s 38
f 205/197/97 21/198/97 204/199/97
s 39
f 21/198/98 206/200/99 204/199/99
s 40
f 61/201/100 63/202/33 74/203/101
f 55/204/102 69/205/32 68/206/31
f 57/207/38 71/208/37 70/209/38
f 59/210/36 73/211/35 72/212/36
f 51/213/103 65/214/26 64/215/103
f 53/216/30 67/217/29 66/218/30
s 41
f 25/219/16 24/220/104 26/221/104
s 42
f 191/222/105 29/223/105 188/224/105
s 43
f 195/225/97 26/226/97 192/227/97
s 44
f 29/228/106 193/229/106 188/230/106
s 45
f 23/231/99 195/225/99 190/232/99
s 36
f 268/81/13 49/233/13 264/156/13
s 24
f 107/234/75 273/83/45 271/154/75
s 35
f 264/178/76 50/235/76 265/43/76
s 24
f 269/80/18 109/236/44 114/237/18
s 40
f 52/238/33 64/239/103 63/202/33
f 66/218/30 54/240/26 53/216/30
f 68/206/31 56/241/29 55/204/102
f 70/209/38 58/242/32 57/207/38
f 72/212/36 60/243/37 59/210/36
f 74/203/101 62/244/35 61/201/100
s 46
f 82/245/16 68/246/16 69/247/16
f 64/248/16 65/249/16 78/250/16
f 76/251/16 74/252/16 63/253/16
f 70/254/16 81/255/16 69/247/16
s 47
f 109/256/1 111/257/1 50/258/1
s 24
f 108/259/74 271/154/75 270/149/74
f 266/78/16 108/259/74 270/149/74
s 37
f 134/186/92 122/182/90 121/187/92
f 128/196/96 116/260/95 115/194/96
f 132/261/43 120/179/88 119/262/43
f 136/189/94 124/185/91 123/190/94
f 138/193/41 126/188/93 125/191/41
f 117/181/89 129/195/76 118/263/76
s 48
f 191/222/99 28/264/99 30/265/99
s 49
f 189/266/106 26/226/106 24/220/107
s 50
f 28/264/97 193/229/97 27/267/97
s 51
f 23/268/105 189/266/105 24/220/105
s 52
f 195/269/13 189/266/13 190/270/13
s 53
f 205/197/106 20/271/106 22/272/106
s 54
f 20/271/105 206/273/105 19/274/105
s 55
f 205/275/16 206/273/16 207/276/16
s 46
f 79/277/16 80/278/16 68/246/16
f 74/252/16 85/279/16 86/280/16
f 67/281/16 80/278/16 77/282/16
f 70/254/16 71/283/16 84/284/16
f 81/255/16 70/254/16 84/284/16
f 66/285/16 67/281/16 77/282/16
f 72/286/16 84/284/16 71/283/16
f 77/282/16 78/250/16 66/285/16
f 72/286/16 83/287/16 84/284/16
f 72/286/16 73/288/16 83/287/16
f 75/289/16 64/248/16 78/250/16
f 63/253/16 64/248/16 75/289/16
f 80/278/16 67/281/16 68/246/16
f 73/288/16 74/252/16 86/280/16
f 76/251/16 63/253/16 75/289/16
f 78/250/16 65/249/16 66/285/16
f 73/288/16 86/280/16 83/287/16
f 74/252/16 76/251/16 85/279/16
f 81/255/16 82/245/16 69/247/16
f 68/246/16 82/245/16 79/277/16
s 56
f 194/290/16 188/224/16 193/291/16
s 24
f 272/84/44 110/292/45 109/236/44
s 23
f 268/81/43 114/237/43 113/293/43
s 22
f 266/78/41 112/294/108 111/295/108
s 19
f 112/294/15 265/43/15 50/235/15
s 37
f 120/179/88 131/296/88 130/180/89
f 122/182/90 133/297/90 132/183/43
f 124/185/91 135/298/91 134/186/92
f 126/188/93 137/299/93 136/189/94
f 125/191/41 116/260/95 127/192/95
f 115/194/96 118/263/76 129/195/76
s 57
f 205/197/97 22/272/97 21/198/97
s 39
f 21/198/98 19/300/98 206/200/99
s 40
f 61/201/100 52/238/33 63/202/33
f 55/204/102 58/242/32 69/205/32
f 57/207/38 60/243/37 71/208/37
f 59/210/36 62/244/35 73/211/35
f 51/213/103 54/240/26 65/214/26
f 53/216/30 56/241/29 67/217/29
s 41
f 25/219/16 23/268/16 24/220/104
s 58
f 191/222/105 30/265/105 29/223/105
s 43
f 195/225/97 25/301/97 26/226/97
s 44
f 29/228/106 27/267/106 193/229/106
s 45
f 23/231/99 25/301/99 195/225/99
s 36
f 268/81/13 113/293/13 49/233/13
s 24
f 107/234/75 110/292/45 273/83/45
s 35
f 264/178/76 49/302/76 50/235/76
s 24
f 269/80/18 272/84/44 109/236/44
s 40
f 52/238/33 51/303/103 64/239/103
f 66/218/30 65/214/26 54/240/26
f 68/206/31 67/217/29 56/241/29
f 70/209/38 69/205/32 58/242/32
f 72/212/36 71/208/37 60/243/37
f 74/203/101 73/211/35 62/244/35
s 47
f 50/258/1 49/304/1 113/305/1
f 113/305/1 114/306/1 109/256/1
f 109/256/1 110/307/1 107/308/1
f 107/308/1 108/309/1 111/257/1
f 111/257/1 112/310/1 50/258/1
f 50/258/1 113/305/1 109/256/1
f 109/256/1 107/308/1 111/257/1
s 24
f 108/259/74 107/234/75 271/154/75
f 266/78/16 111/295/16 108/259/74
s 37
f 134/186/92 133/297/90 122/182/90
f 128/196/96 127/192/95 116/260/95
f 132/261/43 131/296/88 120/179/88
f 136/189/94 135/298/91 124/185/91
f 138/193/41 137/299/93 126/188/93
f 117/181/89 130/180/89 129/195/76
s 48
f 191/222/99 194/311/99 28/264/99
s 49
f 189/266/106 192/227/109 26/226/106
s 59
f 28/264/97 194/311/97 193/229/97
s 51
f 23/268/105 190/270/105 189/266/105
s 52
f 195/269/13 192/312/13 189/266/13
s 53
f 205/197/106 207/276/106 20/271/106
s 60
f 20/271/105 207/276/105 206/273/105
s 55
f 205/275/16 204/313/16 206/273/16
s 56
f 194/290/16 191/222/110 188/224/16
s 24
f 272/84/44 273/83/45 110/292/45
s 23
f 268/81/43 269/80/43 114/237/43
s 22
f 266/78/41 267/41/41 112/294/108
s 19
f 112/294/15 267/41/15 265/43/15
s 61
g Garra.001_SpacialRoverExploreralumBlack
usemtl SpacialRoverExploreralumBlack
f 43/314/110 39/315/16 44/316/16
s 62
f 40/317/111 47/318/111 39/319/111
s 63
f 46/320/112 44/316/112 45/321/112
s 64
f 47/318/113 44/322/113 39/319/113
s 65
f 40/317/114 46/320/115 48/323/115
s 66
f 198/324/116 202/325/99 199/326/99
s 67
f 196/327/106 200/328/106 197/329/117
s 68
f 202/325/97 200/330/97 201/331/97
s 69
f 197/329/105 199/326/105 196/327/105
s 70
f 212/332/16 209/333/118 211/334/118
s 71
f 213/335/105 211/336/105 215/337/105
s 72
f 210/338/119 213/335/117 214/339/117
s 73
f 208/340/120 211/334/116 209/333/116
s 74
f 210/338/97 208/340/97 209/333/97
s 61
f 43/314/110 40/341/110 39/315/16
s 75
f 40/317/111 48/323/111 47/318/111
s 76
f 46/320/112 43/314/112 44/316/112
s 64
f 47/318/113 45/342/113 44/322/113
s 65
f 40/317/114 43/314/114 46/320/115
s 66
f 198/324/116 203/343/116 202/325/99
s 67
f 196/327/106 201/344/106 200/328/106
s 77
f 202/325/97 203/343/97 200/330/97
s 69
f 197/329/105 198/324/105 199/326/105
s 70
f 212/332/16 210/338/16 209/333/118
s 78
f 213/335/105 212/345/105 211/336/105
s 72
f 210/338/119 212/345/121 213/335/117
s 73
f 208/340/120 215/346/122 211/334/116
s 79
f 210/338/97 214/339/97 208/340/97
s 80
g Garra.001_SpacialRoverExploreralumOrange
usemtl SpacialRoverExploreralumOrange
f 80/347/29 98/348/30 77/349/30
f 76/350/33 90/351/101 85/352/100
f 84/353/37 94/354/38 81/355/38
f 86/356/35 92/357/36 83/358/36
f 82/359/32 96/360/31 79/361/31
s 81
f 237/362/35 219/363/36 238/364/36
f 229/365/32 227/366/31 230/367/31
f 231/368/29 225/369/30 232/370/30
f 235/371/33 221/372/100 236/373/101
s 82
f 235/374/123 96/375/124 93/376/123
s 81
f 234/377/103 224/378/26 223/379/103
s 80
f 86/356/35 90/351/101 89/380/35
f 82/359/32 94/354/38 93/381/32
f 78/382/26 98/348/30 97/383/26
f 88/384/103 76/350/33 75/385/103
f 92/357/36 84/386/37 83/358/36
f 79/361/31 95/387/29 80/347/29
f 78/382/26 88/384/103 75/385/103
s 81
f 217/388/38 229/365/32 228/389/38
f 225/369/30 233/390/26 232/370/30
f 236/373/101 220/391/35 237/362/35
f 231/368/29 227/366/31 226/392/29
f 235/371/33 223/379/103 222/393/33
f 218/394/37 238/364/36 219/363/36
f 228/389/38 218/394/37 217/388/38
s 82
f 237/395/125 95/396/125 96/375/124
f 96/375/124 235/374/123 236/397/126
f 94/398/127 234/399/128 93/376/123
f 236/397/126 237/395/125 96/375/124
f 90/400/129 230/401/130 231/402/131
f 95/396/125 237/395/125 238/403/132
f 88/404/133 97/405/134 239/406/135
f 234/399/128 94/398/127 233/407/136
f 98/408/137 95/396/125 238/403/132
f 92/409/138 233/407/136 91/410/139
f 238/403/132 239/406/135 98/408/137
f 92/409/138 232/411/138 233/407/136
f 92/409/138 89/412/131 232/411/138
f 228/413/140 88/404/133 239/406/135
f 87/414/141 88/404/133 228/413/140
f 94/398/127 91/410/139 233/407/136
f 89/412/131 90/400/129 231/402/131
f 229/415/142 87/414/141 228/413/140
f 239/406/135 97/405/134 98/408/137
f 89/412/131 231/402/131 232/411/138
f 229/415/142 90/400/129 87/414/141
f 234/399/128 235/374/123 93/376/123
f 90/400/129 229/415/142 230/401/130
s 80
f 80/347/29 95/387/29 98/348/30
f 76/350/33 87/416/33 90/351/101
f 84/353/37 91/417/37 94/354/38
f 86/356/35 89/380/35 92/357/36
f 82/359/32 93/381/32 96/360/31
s 81
f 237/362/35 220/391/35 219/363/36
f 229/365/32 216/418/32 227/366/31
f 231/368/29 226/392/29 225/369/30
f 235/371/33 222/393/33 221/372/100
f 234/377/103 233/419/26 224/378/26
s 80
f 86/356/35 85/352/100 90/351/101
f 82/359/32 81/355/38 94/354/38
f 78/382/26 77/349/30 98/348/30
f 88/384/103 87/416/33 76/350/33
f 92/357/36 91/420/37 84/386/37
f 79/361/31 96/360/31 95/387/29
f 78/382/26 97/383/26 88/384/103
s 81
f 217/388/38 216/418/32 229/365/32
f 225/369/30 224/421/26 233/390/26
f 236/373/101 221/372/100 220/391/35
f 231/368/29 230/367/31 227/366/31
f 235/371/33 234/377/103 223/379/103
f 218/394/37 239/422/37 238/364/36
f 228/389/38 239/422/37 218/394/37
