# Blender 5.2.0 LTS
# www.blender.org
mtllib panel1.mtl
g Cube.016_Cube.002_Cube.016_Cube.002
v 0.226885 -0.066314 -0.456871
v -0.239300 0.081711 -0.456871
v 0.226885 -0.066314 -0.425412
v -0.239300 0.081711 -0.425412
v 0.223581 -0.076718 -0.456871
v -0.242604 0.071306 -0.456871
v 0.223581 -0.076718 -0.425412
v -0.242604 0.071306 -0.425412
v 0.021031 0.001236 -0.657147
v -0.004882 0.009464 -0.657147
v 0.021031 0.001236 -0.635824
v -0.004882 0.009464 -0.635824
v 0.016466 -0.013141 -0.657147
v -0.009447 -0.004913 -0.657147
v 0.016466 -0.013141 -0.635824
v -0.009447 -0.004913 -0.635824
v 0.008074 0.005350 -0.657147
v 0.008074 0.005350 -0.635824
v 0.003509 -0.009027 -0.635824
v 0.003509 -0.009027 -0.657147
v -0.115442 0.044570 -0.467696
v -0.120007 0.030192 -0.467696
v -0.102486 0.040456 -0.467696
v -0.107051 0.026078 -0.467696
v 0.118635 -0.029755 -0.467696
v 0.131591 -0.033869 -0.467696
v 0.127026 -0.048246 -0.467696
v 0.114070 -0.044132 -0.467696
v -0.116354 0.041697 -0.453697
v -0.119095 0.033065 -0.453697
v -0.103398 0.037583 -0.453697
v -0.106139 0.028951 -0.453697
v 0.117723 -0.032628 -0.453697
v 0.130679 -0.036742 -0.453697
v 0.127938 -0.045374 -0.453697
v 0.114982 -0.041260 -0.453697
v 0.213037 -0.061917 -0.378096
v -0.225453 0.077314 -0.378096
v 0.213037 -0.061917 0.043336
v -0.225453 0.077314 0.043336
v 0.209734 -0.072322 -0.378096
v -0.228757 0.066909 -0.378096
v 0.209734 -0.072322 0.043336
v -0.228757 0.066909 0.043336
v -0.116354 0.041697 -0.426723
v -0.119095 0.033065 -0.426723
v -0.103398 0.037583 -0.426723
v -0.106139 0.028951 -0.426723
v 0.117723 -0.032628 -0.426723
v 0.130679 -0.036742 -0.426723
v 0.127938 -0.045374 -0.426723
v 0.114982 -0.041260 -0.426723
v -0.116354 0.041697 -0.389758
v -0.119095 0.033065 -0.389758
v -0.103398 0.037583 -0.389758
v -0.106139 0.028951 -0.389758
v 0.117723 -0.032628 -0.389758
v 0.130679 -0.036742 -0.389758
v 0.127938 -0.045374 -0.389758
v 0.114982 -0.041260 -0.389758
v 0.226885 -0.066314 0.057865
v 0.226885 -0.066314 -0.392624
v -0.239300 0.081711 -0.392624
v -0.239300 0.081711 0.057865
v -0.242604 0.071306 0.057865
v 0.223581 -0.076718 0.057865
v 0.223581 -0.076718 -0.392624
v -0.242604 0.071306 -0.392624
v 0.213037 -0.061917 0.104069
v -0.225453 0.077314 0.104069
v 0.213037 -0.061917 0.525501
v -0.225453 0.077314 0.525501
v 0.209734 -0.072322 0.104069
v -0.228757 0.066909 0.104069
v 0.209734 -0.072322 0.525501
v -0.228757 0.066909 0.525501
v -0.116354 0.041697 0.055442
v -0.119095 0.033065 0.055442
v -0.103398 0.037583 0.055442
v -0.106139 0.028951 0.055442
v 0.117723 -0.032628 0.055442
v 0.130679 -0.036742 0.055442
v 0.127938 -0.045374 0.055442
v 0.114982 -0.041260 0.055442
v -0.116354 0.041697 0.092407
v -0.119095 0.033065 0.092407
v -0.103398 0.037583 0.092407
v -0.106139 0.028951 0.092407
v 0.117723 -0.032628 0.092407
v 0.130679 -0.036742 0.092407
v 0.127938 -0.045374 0.092407
v 0.114982 -0.041260 0.092407
v 0.226885 -0.066314 0.540030
v 0.226885 -0.066314 0.089541
v -0.239300 0.081711 0.089541
v -0.239300 0.081711 0.540030
v -0.242604 0.071306 0.540030
v 0.223581 -0.076718 0.540030
v 0.223581 -0.076718 0.089541
v -0.242604 0.071306 0.089541
v 0.213037 -0.061917 0.586234
v -0.225453 0.077314 0.586234
v 0.213037 -0.061917 1.007666
v -0.225453 0.077314 1.007666
v 0.209734 -0.072322 0.586234
v -0.228757 0.066909 0.586234
v 0.209734 -0.072322 1.007666
v -0.228757 0.066909 1.007666
v -0.116354 0.041697 0.537607
v -0.119095 0.033065 0.537607
v -0.103398 0.037583 0.537607
v -0.106139 0.028951 0.537607
v 0.117723 -0.032628 0.537607
v 0.130679 -0.036742 0.537607
v 0.127938 -0.045374 0.537607
v 0.114982 -0.041260 0.537607
v -0.116354 0.041697 0.574573
v -0.119095 0.033065 0.574573
v -0.103398 0.037583 0.574573
v -0.106139 0.028951 0.574573
v 0.117723 -0.032628 0.574573
v 0.130679 -0.036742 0.574573
v 0.127938 -0.045374 0.574573
v 0.114982 -0.041260 0.574573
v 0.226885 -0.066314 1.022195
v 0.226885 -0.066314 0.571706
v -0.239300 0.081711 0.571706
v -0.239300 0.081711 1.022195
v -0.242604 0.071306 1.022195
v 0.223581 -0.076718 1.022195
v 0.223581 -0.076718 0.571706
v -0.242604 0.071306 0.571706
vn 0.3026 0.9531 -0.0000
vn -0.0000 -0.0000 1.0000
vn -0.3026 -0.9531 -0.0000
vn -0.0000 -0.0000 -1.0000
vn 0.9531 -0.3027 -0.0000
vn -0.9531 0.3026 -0.0000
vn 0.9531 -0.3026 -0.0000
vn 0.7845 -0.2491 0.5679
vn -0.7845 0.2491 -0.5679
vn 0.7845 -0.2491 -0.5679
vn -0.7845 0.2491 0.5679
vn 0.2959 0.9317 0.2105
vn -0.2959 -0.9318 0.2104
vn -0.2959 -0.9317 0.2105
vt 0.955459 0.297515
vt 0.970671 0.534039
vt 0.955459 0.534038
vt 0.970671 0.297515
vt 0.975950 0.534038
vt 0.975950 0.297515
vt 0.991163 0.534039
vt 0.950180 0.534038
vt 0.991163 0.539318
vt 0.975950 0.539318
vt 0.975950 0.292236
vt 0.991163 0.297515
vt 0.878663 0.663895
vt 0.877664 0.673177
vt 0.877819 0.663964
vt 0.884628 0.667531
vt 0.985496 0.673872
vt 0.884732 0.658940
vt 0.878012 0.662831
vt 0.878236 0.653525
vt 0.871237 0.659278
vt 0.876952 0.663614
vt 0.871289 0.667741
vt 0.878883 0.663180
vt 0.877173 0.662901
vt 0.772195 0.658132
vt 0.986169 0.648608
vt 0.992984 0.655387
vt 0.985760 0.656425
vt 0.878096 0.645831
vt 0.987430 0.662040
vt 0.987419 0.668148
vt 0.770719 0.663444
vt 0.764911 0.669081
vt 0.764389 0.664297
vt 0.771591 0.651206
vt 0.772505 0.674394
vt 0.770897 0.669096
vt 0.994480 0.667337
vt 0.993743 0.675392
vt 0.765095 0.657129
vt 0.765857 0.675392
vt 0.993942 0.662122
vt 0.764866 0.652902
vt 0.469978 0.211199
vt 0.692451 0.007407
vt 0.692451 0.211199
vt 0.756667 0.769376
vt 0.993192 0.764097
vt 0.993192 0.769376
vt 0.692749 0.007407
vt 0.470275 0.211199
vt 0.470275 0.007407
vt 0.993192 0.992498
vt 0.756667 0.987219
vt 0.993192 0.987219
vt 0.514864 0.769376
vt 0.509585 0.987219
vt 0.509585 0.769376
vt 0.751388 0.987219
vt 0.751388 0.769376
vt 0.839951 0.724246
vt 0.846524 0.706370
vt 0.846524 0.724246
vt 0.850904 0.724246
vt 0.857477 0.706370
vt 0.857477 0.724246
vt 0.879001 0.908155
vt 0.872427 0.926031
vt 0.872427 0.908155
vt 0.868048 0.926031
vt 0.868048 0.908155
vt 0.861857 0.706370
vt 0.861857 0.724246
vt 0.850904 0.706370
vt 0.883380 0.908155
vt 0.879001 0.926031
vt 0.861475 0.926031
vt 0.861475 0.908155
vt 0.986166 0.776402
vt 0.986166 0.980194
vt 0.763693 0.980194
vt 0.763693 0.776402
vt 0.744363 0.776402
vt 0.521889 0.776402
vt 0.514864 0.987219
vt 0.744363 0.980194
vt 0.521889 0.980194
vt 0.950180 0.297515
vt 0.991163 0.292236
vt 0.993319 0.650689
vt 0.469977 0.007407
vt 0.756667 0.764097
vt 0.692749 0.211199
vt 0.756667 0.992498
vt 0.839951 0.706370
vt 0.883380 0.926031
s 1
g off
g Cube.016_Cube.002_Satellite
usemtl Satellite
f 2/1/1 3/2/1 1/3/1
s 2
f 4/4/2 7/5/2 3/2/2
s 3
f 8/6/3 5/7/3 7/5/3
s 4
f 5/8/4 2/1/4 1/3/4
s 5
f 7/5/5 1/9/5 3/10/5
s 6
f 4/11/6 6/12/6 8/6/6
s 7
f 10/13/1 18/14/1 17/15/1
f 12/16/1 23/17/1 18/14/1
s 8
f 16/18/3 20/19/3 19/20/3
s 9
f 15/21/7 9/22/7 11/23/7
s 10
f 12/16/6 14/24/6 16/18/6
s 8
f 19/20/3 13/25/3 15/21/3
f 15/21/3 28/26/3 19/20/3
s 7
f 17/15/1 11/23/1 9/22/1
s 11
f 23/27/7 32/28/7 24/29/7
s 12
f 18/30/8 24/29/8 19/20/8
s 13
f 12/16/9 22/31/9 21/32/9
s 8
f 16/18/3 24/29/3 22/31/3
s 14
f 27/33/7 34/34/7 35/35/7
s 15
f 11/23/10 27/33/10 15/21/10
s 16
f 18/30/11 28/26/11 25/36/11
s 7
f 11/23/1 25/37/1 26/38/1
s 17
f 23/17/12 29/39/12 31/40/12
s 18
f 27/33/13 36/41/13 28/26/13
s 19
f 26/38/12 33/42/12 34/34/12
s 20
f 22/31/14 32/28/14 30/43/14
s 21
f 28/26/6 33/44/6 25/36/6
s 22
f 22/31/6 29/39/6 21/32/6
s 23
f 38/45/1 39/46/1 37/47/1
s 24
f 64/48/2 66/49/2 61/50/2
s 25
f 44/51/3 41/52/3 43/53/3
s 26
f 67/54/4 63/55/4 62/56/4
s 27
f 66/57/5 62/58/5 61/59/5
s 28
f 64/48/6 68/60/6 65/61/6
s 29
f 49/62/1 58/63/1 50/64/1
s 30
f 51/65/3 60/66/3 52/67/3
s 31
f 48/68/3 54/69/3 46/70/3
s 32
f 46/70/6 53/71/6 45/72/6
s 33
f 52/67/6 57/73/6 49/74/6
s 34
f 50/64/7 59/75/7 51/65/7
s 35
f 47/76/7 56/77/7 48/68/7
s 36
f 45/72/1 55/78/1 47/79/1
s 23
f 39/80/1 62/56/1 37/81/1
f 37/81/1 63/55/1 38/82/1
f 40/83/1 63/55/1 64/48/1
f 39/80/1 64/48/1 61/50/1
s 25
f 44/84/3 66/57/3 65/61/3
f 43/85/3 67/86/3 66/57/3
f 44/84/3 68/60/3 42/87/3
f 42/87/3 67/86/3 41/88/3
s 37
f 70/45/1 71/46/1 69/47/1
s 38
f 96/48/2 98/49/2 93/50/2
s 39
f 76/51/3 73/52/3 75/53/3
s 40
f 99/54/4 95/55/4 94/56/4
s 41
f 98/57/5 94/58/5 93/59/5
s 42
f 96/48/6 100/60/6 97/61/6
s 43
f 81/62/1 90/63/1 82/64/1
s 44
f 83/65/3 92/66/3 84/67/3
s 45
f 80/68/3 86/69/3 78/70/3
s 46
f 78/70/6 85/71/6 77/72/6
s 47
f 84/67/6 89/73/6 81/74/6
s 48
f 82/64/7 91/75/7 83/65/7
s 49
f 79/76/7 88/77/7 80/68/7
s 50
f 77/72/1 87/78/1 79/79/1
s 37
f 71/80/1 94/56/1 69/81/1
f 69/81/1 95/55/1 70/82/1
f 72/83/1 95/55/1 96/48/1
f 71/80/1 96/48/1 93/50/1
s 39
f 76/84/3 98/57/3 97/61/3
f 75/85/3 99/86/3 98/57/3
f 76/84/3 100/60/3 74/87/3
f 74/87/3 99/86/3 73/88/3
s 51
f 102/45/1 103/46/1 101/47/1
s 52
f 128/48/2 130/49/2 125/50/2
s 53
f 108/51/3 105/52/3 107/53/3
s 54
f 131/54/4 127/55/4 126/56/4
s 55
f 130/57/5 126/58/5 125/59/5
s 56
f 128/48/6 132/60/6 129/61/6
s 57
f 113/62/1 122/63/1 114/64/1
s 58
f 115/65/3 124/66/3 116/67/3
s 59
f 112/68/3 118/69/3 110/70/3
s 60
f 110/70/6 117/71/6 109/72/6
s 61
f 116/67/6 121/73/6 113/74/6
s 62
f 114/64/7 123/75/7 115/65/7
s 63
f 111/76/7 120/77/7 112/68/7
s 64
f 109/72/1 119/78/1 111/79/1
s 51
f 103/80/1 126/56/1 101/81/1
f 101/81/1 127/55/1 102/82/1
f 104/83/1 127/55/1 128/48/1
f 103/80/1 128/48/1 125/50/1
s 53
f 108/84/3 130/57/3 129/61/3
f 107/85/3 131/86/3 130/57/3
f 108/84/3 132/60/3 106/87/3
f 106/87/3 131/86/3 105/88/3
s 1
f 2/1/1 4/4/1 3/2/1
s 2
f 4/4/2 8/6/2 7/5/2
s 3
f 8/6/3 6/12/3 5/7/3
s 4
f 5/8/4 6/89/4 2/1/4
s 5
f 7/5/5 5/7/5 1/9/5
s 6
f 4/11/6 2/90/6 6/12/6
s 7
f 10/13/1 12/16/1 18/14/1
f 12/16/1 21/32/1 23/17/1
s 8
f 16/18/3 14/24/3 20/19/3
s 9
f 15/21/7 13/25/7 9/22/7
s 10
f 12/16/6 10/13/6 14/24/6
s 8
f 19/20/3 20/19/3 13/25/3
f 15/21/3 27/33/3 28/26/3
s 7
f 17/15/1 18/14/1 11/23/1
s 11
f 23/27/7 31/91/7 32/28/7
s 12
f 18/30/8 23/27/8 24/29/8
s 13
f 12/16/9 16/18/9 22/31/9
s 8
f 16/18/3 19/20/3 24/29/3
s 14
f 27/33/7 26/38/7 34/34/7
s 15
f 11/23/10 26/38/10 27/33/10
s 16
f 18/30/11 19/20/11 28/26/11
s 7
f 11/23/1 18/14/1 25/37/1
s 17
f 23/17/12 21/32/12 29/39/12
s 18
f 27/33/13 35/35/13 36/41/13
s 19
f 26/38/12 25/37/12 33/42/12
s 20
f 22/31/14 24/29/14 32/28/14
s 21
f 28/26/6 36/41/6 33/44/6
s 22
f 22/31/6 30/43/6 29/39/6
s 23
f 38/45/1 40/92/1 39/46/1
s 24
f 64/48/2 65/93/2 66/49/2
s 25
f 44/51/3 42/94/3 41/52/3
s 26
f 67/54/4 68/95/4 63/55/4
s 27
f 66/57/5 67/86/5 62/58/5
s 28
f 64/48/6 63/55/6 68/60/6
s 29
f 49/62/1 57/96/1 58/63/1
s 30
f 51/65/3 59/75/3 60/66/3
s 31
f 48/68/3 56/77/3 54/69/3
s 32
f 46/70/6 54/69/6 53/71/6
s 33
f 52/67/6 60/66/6 57/73/6
s 34
f 50/64/7 58/63/7 59/75/7
s 35
f 47/76/7 55/97/7 56/77/7
s 36
f 45/72/1 53/71/1 55/78/1
s 23
f 39/80/1 61/50/1 62/56/1
f 37/81/1 62/56/1 63/55/1
f 40/83/1 38/82/1 63/55/1
f 39/80/1 40/83/1 64/48/1
s 25
f 44/84/3 43/85/3 66/57/3
f 43/85/3 41/88/3 67/86/3
f 44/84/3 65/61/3 68/60/3
f 42/87/3 68/60/3 67/86/3
s 37
f 70/45/1 72/92/1 71/46/1
s 38
f 96/48/2 97/93/2 98/49/2
s 39
f 76/51/3 74/94/3 73/52/3
s 40
f 99/54/4 100/95/4 95/55/4
s 41
f 98/57/5 99/86/5 94/58/5
s 42
f 96/48/6 95/55/6 100/60/6
s 43
f 81/62/1 89/96/1 90/63/1
s 44
f 83/65/3 91/75/3 92/66/3
s 45
f 80/68/3 88/77/3 86/69/3
s 46
f 78/70/6 86/69/6 85/71/6
s 47
f 84/67/6 92/66/6 89/73/6
s 48
f 82/64/7 90/63/7 91/75/7
s 49
f 79/76/7 87/97/7 88/77/7
s 50
f 77/72/1 85/71/1 87/78/1
s 37
f 71/80/1 93/50/1 94/56/1
f 69/81/1 94/56/1 95/55/1
f 72/83/1 70/82/1 95/55/1
f 71/80/1 72/83/1 96/48/1
s 39
f 76/84/3 75/85/3 98/57/3
f 75/85/3 73/88/3 99/86/3
f 76/84/3 97/61/3 100/60/3
f 74/87/3 100/60/3 99/86/3
s 51
f 102/45/1 104/92/1 103/46/1
s 52
f 128/48/2 129/93/2 130/49/2
s 53
f 108/51/3 106/94/3 105/52/3
s 54
f 131/54/4 132/95/4 127/55/4
s 55
f 130/57/5 131/86/5 126/58/5
s 56
f 128/48/6 127/55/6 132/60/6
s 57
f 113/62/1 121/96/1 122/63/1
s 58
f 115/65/3 123/75/3 124/66/3
s 59
f 112/68/3 120/77/3 118/69/3
s 60
f 110/70/6 118/69/6 117/71/6
s 61
f 116/67/6 124/66/6 121/73/6
s 62
f 114/64/7 122/63/7 123/75/7
s 63
f 111/76/7 119/97/7 120/77/7
s 64
f 109/72/1 117/71/1 119/78/1
s 51
f 103/80/1 125/50/1 126/56/1
f 101/81/1 126/56/1 127/55/1
f 104/83/1 102/82/1 127/55/1
f 103/80/1 104/83/1 128/48/1
s 53
f 108/84/3 107/85/3 130/57/3
f 107/85/3 105/88/3 131/86/3
f 108/84/3 129/61/3 132/60/3
f 106/87/3 132/60/3 131/86/3
