# Blender 5.2.0 LTS
# www.blender.org
mtllib panel2.mtl
g Cube.001_Cube.001_Cube.001_Cube.001
v -0.211980 0.065444 0.378096
v 0.224139 -0.081044 0.378096
v -0.211980 0.065444 -0.043336
v 0.224139 -0.081044 -0.043336
v -0.208505 0.075793 0.378096
v 0.227615 -0.070696 0.378096
v -0.208505 0.075793 -0.043336
v 0.227615 -0.070696 -0.043336
v 0.115646 -0.043622 0.426723
v 0.118530 -0.035036 0.426723
v 0.102760 -0.039293 0.426723
v 0.105644 -0.030708 0.426723
v -0.117165 0.034578 0.426723
v -0.130051 0.038906 0.426723
v -0.127167 0.047491 0.426723
v -0.114281 0.043163 0.426723
v 0.115646 -0.043622 0.389758
v 0.118530 -0.035036 0.389758
v 0.102760 -0.039293 0.389758
v 0.105644 -0.030708 0.389758
v -0.117165 0.034578 0.389758
v -0.130051 0.038906 0.389758
v -0.127167 0.047491 0.389758
v -0.114281 0.043163 0.389758
v -0.225753 0.070071 -0.057865
v -0.225753 0.070071 0.392624
v 0.237911 -0.085671 0.392624
v 0.237911 -0.085671 -0.057865
v 0.241388 -0.075322 -0.057865
v -0.222277 0.080418 -0.057865
v -0.222277 0.080418 0.392624
v 0.241388 -0.075322 0.392624
v -0.211980 0.065444 -0.104069
v 0.224139 -0.081044 -0.104069
v -0.211980 0.065444 -0.525501
v 0.224139 -0.081044 -0.525501
v -0.208505 0.075793 -0.104069
v 0.227615 -0.070696 -0.104069
v -0.208504 0.075793 -0.525501
v 0.227616 -0.070696 -0.525501
v 0.115646 -0.043622 -0.055442
v 0.118530 -0.035036 -0.055442
v 0.102760 -0.039293 -0.055442
v 0.105644 -0.030708 -0.055442
v -0.117165 0.034578 -0.055442
v -0.130051 0.038906 -0.055442
v -0.127167 0.047491 -0.055442
v -0.114281 0.043163 -0.055442
v 0.115646 -0.043622 -0.092407
v 0.118530 -0.035036 -0.092407
v 0.102760 -0.039293 -0.092407
v 0.105644 -0.030708 -0.092407
v -0.117165 0.034578 -0.092407
v -0.130051 0.038906 -0.092407
v -0.127167 0.047491 -0.092407
v -0.114281 0.043163 -0.092407
v -0.225753 0.070071 -0.540030
v -0.225753 0.070071 -0.089541
v 0.237911 -0.085671 -0.089541
v 0.237911 -0.085671 -0.540030
v 0.241388 -0.075322 -0.540030
v -0.222277 0.080418 -0.540030
v -0.222277 0.080418 -0.089541
v 0.241388 -0.075322 -0.089541
v -0.211980 0.065444 -0.586234
v 0.224139 -0.081044 -0.586234
v -0.211980 0.065444 -1.007666
v 0.224139 -0.081044 -1.007666
v -0.208504 0.075793 -0.586234
v 0.227616 -0.070696 -0.586234
v -0.208504 0.075793 -1.007666
v 0.227616 -0.070696 -1.007666
v 0.115646 -0.043622 -0.537607
v 0.118530 -0.035036 -0.537607
v 0.102760 -0.039293 -0.537607
v 0.105644 -0.030708 -0.537607
v -0.117165 0.034578 -0.537607
v -0.130051 0.038906 -0.537607
v -0.127167 0.047491 -0.537607
v -0.114281 0.043163 -0.537607
v 0.115646 -0.043622 -0.574573
v 0.118530 -0.035036 -0.574573
v 0.102760 -0.039293 -0.574573
v 0.105644 -0.030708 -0.574573
v -0.117165 0.034578 -0.574573
v -0.130051 0.038906 -0.574573
v -0.127167 0.047491 -0.574573
v -0.114281 0.043163 -0.574573
v -0.225753 0.070071 -1.022195
v -0.225753 0.070071 -0.571706
v 0.237911 -0.085671 -0.571706
v 0.237911 -0.085671 -1.022195
v 0.241388 -0.075322 -1.022195
v -0.222277 0.080418 -1.022195
v -0.222277 0.080418 -0.571706
v 0.241388 -0.075322 -0.571706
v -0.225753 0.070071 0.456871
v 0.237911 -0.085671 0.456871
v -0.225753 0.070071 0.425412
v 0.237911 -0.085671 0.425412
v -0.222277 0.080418 0.456871
v 0.241388 -0.075322 0.456871
v -0.222277 0.080418 0.425412
v 0.241388 -0.075322 0.425412
v -0.021048 -0.000886 0.657147
v 0.004725 -0.009543 0.657147
v -0.021048 -0.000886 0.635824
v 0.004725 -0.009543 0.635824
v -0.016245 0.013413 0.657147
v 0.009528 0.004756 0.657147
v -0.016245 0.013413 0.635824
v 0.009528 0.004756 0.635824
v -0.008161 -0.005215 0.657147
v -0.008161 -0.005215 0.635824
v -0.003358 0.009084 0.635824
v -0.003358 0.009084 0.657147
v 0.114687 -0.046479 0.467696
v 0.119490 -0.032179 0.467696
v 0.101801 -0.042151 0.467696
v 0.106604 -0.027851 0.467696
v -0.118125 0.031720 0.467696
v -0.131010 0.036049 0.467696
v -0.126208 0.050348 0.467696
v -0.113322 0.046019 0.467696
v 0.115646 -0.043622 0.453697
v 0.118530 -0.035036 0.453697
v 0.102760 -0.039293 0.453697
v 0.105644 -0.030708 0.453697
v -0.117165 0.034578 0.453697
v -0.130051 0.038906 0.453697
v -0.127167 0.047491 0.453697
v -0.114281 0.043163 0.453697
vn -0.3184 -0.9480 -0.0000
vn -0.0000 -0.0000 -1.0000
vn 0.3184 0.9480 -0.0000
vn -0.0000 -0.0000 1.0000
vn -0.9479 0.3184 -0.0000
vn 0.9479 -0.3184 -0.0000
vn -0.3184 -0.9479 -0.0000
vn 0.3184 0.9479 -0.0000
vn -0.9480 0.3184 -0.0000
vn 0.9480 -0.3184 -0.0000
vn -0.7803 0.2621 -0.5679
vn 0.7803 -0.2621 0.5679
vn -0.7803 0.2621 0.5679
vn 0.7803 -0.2621 -0.5679
vn -0.3113 -0.9267 -0.2105
vn 0.3113 0.9267 -0.2104
vn 0.3113 0.9267 -0.2105
vt 0.692451 0.007407
vt 0.469978 0.211199
vt 0.692451 0.211199
vt 0.993192 0.764097
vt 0.756667 0.769376
vt 0.993192 0.769376
vt 0.470275 0.211199
vt 0.692749 0.007407
vt 0.470275 0.007407
vt 0.993192 0.992498
vt 0.756667 0.987219
vt 0.756667 0.992498
vt 0.509585 0.987219
vt 0.514864 0.769376
vt 0.509585 0.769376
vt 0.751388 0.987219
vt 0.751388 0.769376
vt 0.846524 0.706370
vt 0.839951 0.724246
vt 0.846524 0.724246
vt 0.857477 0.706370
vt 0.850904 0.724246
vt 0.857477 0.724246
vt 0.872427 0.926031
vt 0.879001 0.908155
vt 0.872427 0.908155
vt 0.868048 0.926031
vt 0.868048 0.908155
vt 0.861857 0.706370
vt 0.861857 0.724246
vt 0.850904 0.706370
vt 0.879001 0.926031
vt 0.883380 0.908155
vt 0.861475 0.926031
vt 0.861475 0.908155
vt 0.993192 0.987219
vt 0.986166 0.776402
vt 0.986166 0.980194
vt 0.763693 0.980194
vt 0.763693 0.776402
vt 0.744363 0.776402
vt 0.521889 0.776402
vt 0.514864 0.987219
vt 0.521889 0.980194
vt 0.744363 0.980194
vt 0.970671 0.534039
vt 0.955459 0.297515
vt 0.955459 0.534038
vt 0.975950 0.534038
vt 0.970671 0.297515
vt 0.991163 0.534039
vt 0.975950 0.297515
vt 0.950180 0.534038
vt 0.950180 0.297515
vt 0.991163 0.539318
vt 0.975950 0.539318
vt 0.991163 0.297515
vt 0.975950 0.292236
vt 0.877664 0.673177
vt 0.878663 0.663895
vt 0.877819 0.663964
vt 0.985496 0.673872
vt 0.884628 0.667531
vt 0.878012 0.662831
vt 0.884732 0.658940
vt 0.878236 0.653525
vt 0.876952 0.663614
vt 0.871237 0.659278
vt 0.871289 0.667741
vt 0.878883 0.663180
vt 0.877173 0.662901
vt 0.772195 0.658132
vt 0.992984 0.655387
vt 0.986169 0.648608
vt 0.985760 0.656425
vt 0.878096 0.645831
vt 0.987430 0.662040
vt 0.770719 0.663444
vt 0.764911 0.669081
vt 0.770897 0.669096
vt 0.772505 0.674394
vt 0.994480 0.667337
vt 0.987419 0.668148
vt 0.765095 0.657129
vt 0.765857 0.675392
vt 0.764866 0.652902
vt 0.771591 0.651206
vt 0.993942 0.662122
vt 0.469977 0.007407
vt 0.756667 0.764097
vt 0.692749 0.211199
vt 0.839951 0.706370
vt 0.883380 0.926031
vt 0.991163 0.292236
vt 0.993319 0.650689
vt 0.764389 0.664297
vt 0.993743 0.675392
s 1
g off
g Cube.001_Cube.001_Satellite
usemtl Satellite
f 3/1/1 2/2/1 1/3/1
s 2
f 30/4/2 28/5/2 25/6/2
s 3
f 5/7/3 8/8/3 7/9/3
s 4
f 31/10/4 27/11/4 32/12/4
s 5
f 26/13/5 30/14/5 25/15/5
s 6
f 32/16/6 28/5/6 29/17/6
s 7
f 22/18/7 13/19/7 14/20/7
s 8
f 24/21/8 15/22/8 16/23/8
s 9
f 18/24/8 12/25/8 10/26/8
s 10
f 17/27/6 10/26/6 9/28/6
s 11
f 21/29/6 16/23/6 13/30/6
s 12
f 23/31/5 14/20/5 15/22/5
s 13
f 20/32/5 11/33/5 12/25/5
s 14
f 19/34/7 9/28/7 11/35/7
s 1
f 26/36/1 3/37/1 1/38/1
f 27/11/1 1/38/1 2/39/1
f 4/40/1 27/11/1 2/39/1
f 3/37/1 28/5/1 4/40/1
s 3
f 8/41/3 30/14/3 7/42/3
f 7/42/3 31/43/3 5/44/3
f 32/16/3 8/41/3 6/45/3
f 31/43/3 6/45/3 5/44/3
s 15
f 35/1/1 34/2/1 33/3/1
s 16
f 62/4/2 60/5/2 57/6/2
s 17
f 37/7/3 40/8/3 39/9/3
s 18
f 63/10/4 59/11/4 64/12/4
s 19
f 58/13/5 62/14/5 57/15/5
s 20
f 64/16/6 60/5/6 61/17/6
s 21
f 54/18/7 45/19/7 46/20/7
s 22
f 56/21/8 47/22/8 48/23/8
s 23
f 50/24/8 44/25/8 42/26/8
s 24
f 49/27/6 42/26/6 41/28/6
s 25
f 53/29/6 48/23/6 45/30/6
s 26
f 55/31/5 46/20/5 47/22/5
s 27
f 52/32/5 43/33/5 44/25/5
s 28
f 51/34/7 41/28/7 43/35/7
s 15
f 58/36/1 35/37/1 33/38/1
f 59/11/1 33/38/1 34/39/1
f 36/40/1 59/11/1 34/39/1
f 35/37/1 60/5/1 36/40/1
s 17
f 40/41/3 62/14/3 39/42/3
f 39/42/3 63/43/3 37/44/3
f 64/16/3 40/41/3 38/45/3
f 63/43/3 38/45/3 37/44/3
s 29
f 67/1/1 66/2/1 65/3/1
s 30
f 94/4/2 92/5/2 89/6/2
s 31
f 69/7/3 72/8/3 71/9/3
s 32
f 95/10/4 91/11/4 96/12/4
s 33
f 90/13/5 94/14/5 89/15/5
s 34
f 96/16/6 92/5/6 93/17/6
s 35
f 86/18/7 77/19/7 78/20/7
s 36
f 88/21/8 79/22/8 80/23/8
s 37
f 82/24/8 76/25/8 74/26/8
s 38
f 81/27/6 74/26/6 73/28/6
s 39
f 85/29/6 80/23/6 77/30/6
s 40
f 87/31/5 78/20/5 79/22/5
s 41
f 84/32/5 75/33/5 76/25/5
s 42
f 83/34/7 73/28/7 75/35/7
s 29
f 90/36/1 67/37/1 65/38/1
f 91/11/1 65/38/1 66/39/1
f 68/40/1 91/11/1 66/39/1
f 67/37/1 92/5/1 68/40/1
s 31
f 72/41/3 94/14/3 71/42/3
f 71/42/3 95/43/3 69/44/3
f 96/16/3 72/41/3 70/45/3
f 95/43/3 70/45/3 69/44/3
s 43
f 99/46/1 98/47/1 97/48/1
s 44
f 103/49/2 100/50/2 99/46/2
s 45
f 101/51/3 104/52/3 103/49/3
s 46
f 101/53/4 98/47/4 102/54/4
s 47
f 97/55/5 103/49/5 99/56/5
s 48
f 102/57/6 100/58/6 104/52/6
s 49
f 114/59/1 106/60/7 113/61/1
f 119/62/7 108/63/7 114/59/1
s 50
f 116/64/3 112/65/8 115/66/3
s 51
f 105/67/9 111/68/9 107/69/9
s 52
f 110/70/10 108/63/10 112/65/10
s 50
f 109/71/3 115/66/3 111/68/3
f 124/72/8 111/68/3 115/66/3
s 49
f 107/69/1 113/61/1 105/67/1
s 53
f 128/73/9 119/74/9 120/75/9
s 54
f 120/75/11 114/76/11 115/66/11
s 55
f 108/63/12 118/77/12 112/65/12
s 50
f 112/65/8 120/75/8 115/66/3
s 56
f 123/78/9 130/79/9 122/80/9
s 57
f 123/78/13 107/69/13 111/68/13
s 58
f 114/76/14 124/72/14 115/66/14
s 49
f 107/69/1 121/81/7 114/59/1
s 59
f 119/62/15 125/82/15 117/83/15
s 60
f 132/84/16 123/78/16 124/72/16
s 61
f 122/80/15 129/85/15 121/81/15
s 62
f 118/77/17 128/73/17 120/75/17
s 63
f 129/86/10 124/72/10 121/87/10
s 64
f 117/83/10 126/88/10 118/77/10
s 1
f 3/1/1 4/89/1 2/2/1
s 2
f 30/4/2 29/90/2 28/5/2
s 3
f 5/7/3 6/91/3 8/8/3
s 4
f 31/10/4 26/36/4 27/11/4
s 5
f 26/13/5 31/43/5 30/14/5
s 6
f 32/16/6 27/11/6 28/5/6
s 7
f 22/18/7 21/92/7 13/19/7
s 8
f 24/21/8 23/31/8 15/22/8
s 9
f 18/24/8 20/32/8 12/25/8
s 10
f 17/27/6 18/24/6 10/26/6
s 11
f 21/29/6 24/21/6 16/23/6
s 12
f 23/31/5 22/18/5 14/20/5
s 13
f 20/32/5 19/93/5 11/33/5
s 14
f 19/34/7 17/27/7 9/28/7
s 1
f 26/36/1 25/6/1 3/37/1
f 27/11/1 26/36/1 1/38/1
f 4/40/1 28/5/1 27/11/1
f 3/37/1 25/6/1 28/5/1
s 3
f 8/41/3 29/17/3 30/14/3
f 7/42/3 30/14/3 31/43/3
f 32/16/3 29/17/3 8/41/3
f 31/43/3 32/16/3 6/45/3
s 15
f 35/1/1 36/89/1 34/2/1
s 16
f 62/4/2 61/90/2 60/5/2
s 17
f 37/7/3 38/91/3 40/8/3
s 18
f 63/10/4 58/36/4 59/11/4
s 19
f 58/13/5 63/43/5 62/14/5
s 20
f 64/16/6 59/11/6 60/5/6
s 21
f 54/18/7 53/92/7 45/19/7
s 22
f 56/21/8 55/31/8 47/22/8
s 23
f 50/24/8 52/32/8 44/25/8
s 24
f 49/27/6 50/24/6 42/26/6
s 25
f 53/29/6 56/21/6 48/23/6
s 26
f 55/31/5 54/18/5 46/20/5
s 27
f 52/32/5 51/93/5 43/33/5
s 28
f 51/34/7 49/27/7 41/28/7
s 15
f 58/36/1 57/6/1 35/37/1
f 59/11/1 58/36/1 33/38/1
f 36/40/1 60/5/1 59/11/1
f 35/37/1 57/6/1 60/5/1
s 17
f 40/41/3 61/17/3 62/14/3
f 39/42/3 62/14/3 63/43/3
f 64/16/3 61/17/3 40/41/3
f 63/43/3 64/16/3 38/45/3
s 29
f 67/1/1 68/89/1 66/2/1
s 30
f 94/4/2 93/90/2 92/5/2
s 31
f 69/7/3 70/91/3 72/8/3
s 32
f 95/10/4 90/36/4 91/11/4
s 33
f 90/13/5 95/43/5 94/14/5
s 34
f 96/16/6 91/11/6 92/5/6
s 35
f 86/18/7 85/92/7 77/19/7
s 36
f 88/21/8 87/31/8 79/22/8
s 37
f 82/24/8 84/32/8 76/25/8
s 38
f 81/27/6 82/24/6 74/26/6
s 39
f 85/29/6 88/21/6 80/23/6
s 40
f 87/31/5 86/18/5 78/20/5
s 41
f 84/32/5 83/93/5 75/33/5
s 42
f 83/34/7 81/27/7 73/28/7
s 29
f 90/36/1 89/6/1 67/37/1
f 91/11/1 90/36/1 65/38/1
f 68/40/1 92/5/1 91/11/1
f 67/37/1 89/6/1 92/5/1
s 31
f 72/41/3 93/17/3 94/14/3
f 71/42/3 94/14/3 95/43/3
f 96/16/3 93/17/3 72/41/3
f 95/43/3 96/16/3 70/45/3
s 43
f 99/46/1 100/50/1 98/47/1
s 44
f 103/49/2 104/52/2 100/50/2
s 45
f 101/51/3 102/57/3 104/52/3
s 46
f 101/53/4 97/48/4 98/47/4
s 47
f 97/55/5 101/51/5 103/49/5
s 48
f 102/57/6 98/94/6 100/58/6
s 49
f 114/59/1 108/63/7 106/60/7
f 119/62/7 117/83/7 108/63/7
s 50
f 116/64/3 110/70/8 112/65/8
s 51
f 105/67/9 109/71/9 111/68/9
s 52
f 110/70/10 106/60/10 108/63/10
s 50
f 109/71/3 116/64/3 115/66/3
f 124/72/8 123/78/8 111/68/3
s 49
f 107/69/1 114/59/1 113/61/1
s 53
f 128/73/9 127/95/5 119/74/9
s 54
f 120/75/11 119/74/11 114/76/11
s 55
f 108/63/12 117/83/12 118/77/12
s 50
f 112/65/8 118/77/8 120/75/8
s 56
f 123/78/9 131/96/5 130/79/9
s 57
f 123/78/13 122/80/13 107/69/13
s 58
f 114/76/14 121/87/14 124/72/14
s 49
f 107/69/1 122/80/7 121/81/7
s 59
f 119/62/15 127/97/15 125/82/15
s 60
f 132/84/16 131/96/16 123/78/16
s 61
f 122/80/15 130/79/15 129/85/15
s 62
f 118/77/17 126/88/17 128/73/17
s 63
f 129/86/10 132/84/6 124/72/10
s 64
f 117/83/10 125/82/6 126/88/10
